<svg xmlns="http://www.w3.org/2000/svg" width="33" height="32" viewBox="0 0 33 32" fill="none">
  <path d="M25.8841 15.9079L30.0463 9.11872L25.3527 15.5525L25.3528 15.5526L23.6494 18.0956C22.2327 16.671 17.4067 11.8185 17.3351 11.7551C18.2576 10.8223 18.8324 9.54597 18.8494 8.13744C19.5286 7.97629 20.0251 7.37043 20.0251 6.64389C20.0251 5.91714 19.5283 5.31102 18.8488 5.15008C18.8014 2.30239 16.4717 0 13.6129 0C10.7541 0 8.42431 2.30239 8.37704 5.15013C7.69751 5.31108 7.20083 5.91714 7.20083 6.64384C7.20083 7.37038 7.6972 7.97624 8.37641 8.13739C8.39325 9.54581 8.9681 10.8222 9.89056 11.755C9.60073 12.011 3.22387 18.4856 3.22387 18.4856C2.8427 18.8667 2.63281 19.3734 2.63281 19.9124C2.63281 20.4516 2.84275 20.9583 3.22387 21.3394C3.60536 21.721 4.11245 21.9311 4.65159 21.9311C5.19078 21.9311 5.69771 21.7209 6.07868 21.3394L7.999 19.4191V23.7264H9.62112V32H17.6047V23.7264H19.2268V19.3839L21.1822 21.3393C21.241 21.3982 21.3032 21.4524 21.3677 21.503L20.5945 22.6575L21.1256 23.0131L21.9289 21.8137C22.1446 21.8908 22.3741 21.9309 22.6099 21.9309C23.1491 21.9309 23.656 21.7208 24.0371 21.3393C24.4182 20.9581 24.6281 20.4515 24.6281 19.9123C24.6281 19.4076 24.4441 18.9312 24.1078 18.5598L25.8841 15.9079ZM18.851 5.82287C19.1676 5.96127 19.3859 6.27594 19.3859 6.64384C19.3859 7.01174 19.1676 7.3264 18.851 7.46481V5.82287ZM8.37479 7.46481C8.05829 7.3264 7.84005 7.01184 7.84005 6.64384C7.84005 6.27589 8.05829 5.96127 8.37479 5.82287V7.46481ZM16.4371 1.61255C17.5095 2.44973 18.2026 3.75055 18.2111 5.21136C17.4789 4.89989 16.9043 4.32969 16.5892 3.5974C16.3163 2.96315 16.2658 2.27112 16.4371 1.61255ZM11.2654 1.28555C11.9532 0.875611 12.7558 0.63927 13.6129 0.63927C14.437 0.63927 15.2106 0.858303 15.8803 1.23953C15.6023 2.09731 15.6427 3.01507 16.002 3.85005C16.3461 4.64974 16.9458 5.29 17.7111 5.68337L17.1011 6.08426C16.769 5.69225 16.2735 5.44268 15.7206 5.44268C14.7485 5.44268 13.9533 6.21346 13.9132 7.17597H13.3125C13.2724 6.21351 12.4772 5.44268 11.5051 5.44268C10.982 5.44268 10.5103 5.66601 10.1796 6.02209L9.55362 5.61063C10.255 5.21335 10.8055 4.60242 11.1293 3.84995C11.4821 3.03002 11.5274 2.1301 11.2654 1.28555ZM16.8908 7.25215C16.8908 7.89733 16.3659 8.4223 15.7207 8.4223C15.0755 8.4223 14.5506 7.89739 14.5506 7.25215C14.5506 6.60692 15.0755 6.08201 15.7207 6.08201C16.3659 6.08201 16.8908 6.60698 16.8908 7.25215ZM12.6752 7.25215C12.6752 7.89733 12.1503 8.4223 11.5051 8.4223C10.8598 8.4223 10.3349 7.89739 10.3349 7.25215C10.3349 6.60692 10.8598 6.08201 11.5051 6.08201C12.1502 6.08201 12.6752 6.60698 12.6752 7.25215ZM10.7104 1.67415C10.8629 2.31415 10.8065 2.98296 10.5421 3.59745C10.2408 4.29769 9.70243 4.85 9.01579 5.16938C9.03665 3.76121 9.6926 2.50453 10.7104 1.67415ZM9.01401 8.07401V6.02109L9.83362 6.55981C9.74494 6.77325 9.69563 7.00703 9.69563 7.25215C9.69563 8.24981 10.5073 9.06157 11.5051 9.06157C12.3061 9.06157 12.9868 8.53812 13.2243 7.81535H14.0016C14.239 8.53802 14.9198 9.06157 15.7209 9.06157C16.7186 9.06157 17.5302 8.24986 17.5302 7.25215C17.5302 7.03662 17.4922 6.82993 17.4228 6.63809L18.2118 6.11939V8.07401C18.2118 10.6098 16.1488 12.6728 13.613 12.6728H13.6129C11.0771 12.6728 9.01401 10.6098 9.01401 8.07401ZM13.6129 20.9788L12.5012 19.6448L13.6129 16.0396L14.7246 19.6448L13.6129 20.9788ZM13.6126 14.4926L12.2514 13.1315C12.6859 13.2486 13.142 13.312 13.6129 13.312C14.0836 13.312 14.5396 13.2486 14.9739 13.1315L13.6126 14.4926ZM12.8858 14.67L11.5695 15.2485L10.1239 12.4105C10.2035 12.3326 10.2864 12.2574 10.3717 12.1843C10.4137 12.2175 12.8858 14.67 12.8858 14.67ZM16.8541 12.1842C16.9334 12.2523 17.0113 12.3237 17.0876 12.3981L15.6356 15.2485L14.3332 14.676C14.3333 14.676 16.8123 12.2173 16.8541 12.1842ZM5.6266 20.8877C5.36621 21.1484 5.01996 21.292 4.65164 21.292C4.28328 21.292 3.93671 21.1483 3.6759 20.8876C3.41556 20.6272 3.27213 20.281 3.27213 19.9126C3.27213 19.5443 3.41556 19.1981 3.6759 18.9376L4.40385 18.2097L6.39256 20.1218L5.6266 20.8877ZM7.99905 15.957V18.5151L6.8447 19.6695L4.85598 17.7573L8.21767 14.3957C8.07409 14.8958 7.99905 15.4202 7.99905 15.957ZM8.63832 23.0872V15.9571C8.63832 14.8398 9.00543 13.7839 9.66865 12.9251L11.274 16.0767L13.1925 15.2335L11.7881 19.7878L13.2952 21.5963V23.0872H8.63832ZM10.2983 31.3608C10.4509 30.6661 11.0553 30.191 11.7767 30.191C12.4982 30.191 13.1024 30.6661 13.2551 31.3608H10.2983ZM13.2929 30.1731C12.9031 29.7883 12.3674 29.5518 11.7766 29.5518C11.1859 29.5518 10.6501 29.7883 10.2603 30.1731V23.7265H13.2928V30.1731H13.2929ZM13.9707 31.3608C14.1233 30.6661 14.7276 30.191 15.4491 30.191C16.1706 30.191 16.7749 30.6661 16.9275 31.3608H13.9707ZM16.9655 30.1732C16.5757 29.7883 16.0398 29.5517 15.4491 29.5517C14.8581 29.5517 14.322 29.7885 13.9321 30.1737V23.7264H16.9654V30.1732H16.9655ZM18.5876 23.0872H13.9346V21.5914L15.4377 19.7878L14.0365 15.2439L15.9312 16.0767L17.5443 12.9101C18.2201 13.7781 18.5876 14.8388 18.5876 15.9571L18.5876 23.0872ZM18.9927 14.3451L22.4044 17.7568L20.4157 19.6689L19.2269 18.48V15.957C19.2269 15.403 19.1466 14.8614 18.9927 14.3451ZM23.5849 20.8877C23.3245 21.1484 22.9782 21.2919 22.6099 21.2919C22.2416 21.2919 21.895 21.1483 21.6342 20.8875L20.8677 20.1211L22.8565 18.2089L23.585 18.9375C23.8454 19.1979 23.9888 19.5442 23.9888 19.9125C23.9889 20.2809 23.8455 20.6272 23.5849 20.8877Z" fill="#23BD33"/>
  <path d="M11.5072 7.70382C11.7571 7.70382 11.9597 7.50123 11.9597 7.25133C11.9597 7.00142 11.7571 6.79883 11.5072 6.79883C11.2573 6.79883 11.0547 7.00142 11.0547 7.25133C11.0547 7.50123 11.2573 7.70382 11.5072 7.70382Z" fill="#23BD33"/>
  <path d="M15.7181 7.70382C15.968 7.70382 16.1706 7.50123 16.1706 7.25133C16.1706 7.00142 15.968 6.79883 15.7181 6.79883C15.4682 6.79883 15.2656 7.00142 15.2656 7.25133C15.2656 7.50123 15.4682 7.70382 15.7181 7.70382Z" fill="#23BD33"/>
  <path d="M11.9693 16.6855H9.49219V17.3248H11.9693V16.6855Z" fill="#23BD33"/>
</svg>