<svg xmlns="http://www.w3.org/2000/svg" width="33" height="32" viewBox="0 0 33 32" fill="none">
  <g clip-path="url(#clip0_2_3249)">
    <path d="M10.2621 20.2652C10.557 20.2652 10.7954 20.0263 10.7954 19.7319V15.8503C11.1127 15.6652 11.3287 15.325 11.3287 14.9319C11.3287 14.3437 10.8503 13.8652 10.262 13.8652C9.67375 13.8652 9.19531 14.3436 9.19531 14.9319C9.19531 15.325 9.41131 15.6652 9.72863 15.8503V19.7319C9.72875 20.0263 9.96713 20.2652 10.2621 20.2652Z" fill="#F09F04"/>
    <path d="M6.01456 8.40106C6.11644 9.42612 6.56231 10.3285 6.58362 10.3712C7.06737 11.3381 7.798 12.7994 10.2609 12.7994C12.7239 12.7994 13.4546 11.3381 13.9382 10.3712C13.9596 10.3285 14.4054 9.42612 14.5073 8.40106C14.8369 8.21975 15.0609 7.86825 15.0609 7.46613V6.39944C15.0609 6.00531 14.8466 5.66075 14.5276 5.47625V5.33281C14.5276 3.568 13.0924 2.13281 11.3276 2.13281H9.19431C7.4295 2.13281 5.99431 3.568 5.99431 5.33281V5.47625C5.67531 5.66075 5.46094 6.00531 5.46094 6.39944V7.46613C5.46094 7.86825 5.68494 8.21969 6.01456 8.40106ZM6.52762 6.39944C6.82256 6.39944 7.06094 6.1605 7.06094 5.86612V5.33281C7.06094 4.15625 8.01775 3.1995 9.19425 3.1995H11.3276C12.5041 3.1995 13.4609 4.15631 13.4609 5.33281V5.86612C13.4609 6.1605 13.6993 6.39944 13.9942 6.39944V7.46613C13.6993 7.46613 13.4609 7.70506 13.4609 7.99944C13.4609 8.92212 12.9884 9.88531 12.9836 9.89437C12.4284 11.0048 11.9387 11.7327 10.2609 11.7327C8.583 11.7327 8.09337 11.0047 7.53875 9.89487C7.53344 9.88525 7.06087 8.92206 7.06087 7.99944C7.06087 7.70506 6.8225 7.46613 6.52756 7.46613L6.52762 6.39944Z" fill="#F09F04"/>
    <path d="M11.3302 7.46702H11.8635C12.1584 7.46702 12.3968 7.22808 12.3968 6.9337C12.3968 6.63933 12.1584 6.40039 11.8635 6.40039H11.3302C11.0353 6.40039 10.7969 6.63933 10.7969 6.9337C10.7968 7.22808 11.0353 7.46702 11.3302 7.46702Z" fill="#F09F04"/>
    <path d="M8.66612 7.46702H9.19944C9.49438 7.46702 9.73275 7.22808 9.73275 6.9337C9.73275 6.63933 9.49438 6.40039 9.19944 6.40039H8.66612C8.37119 6.40039 8.13281 6.63933 8.13281 6.9337C8.13281 7.22808 8.37119 7.46702 8.66612 7.46702Z" fill="#F09F04"/>
    <path d="M4.4005 20.2656C4.10556 20.2656 3.86719 20.5046 3.86719 20.7989V29.3323C3.86719 29.6266 4.10556 29.8656 4.4005 29.8656C4.69544 29.8656 4.93381 29.6266 4.93381 29.3323V20.7989C4.93387 20.5046 4.69544 20.2656 4.4005 20.2656Z" fill="#F09F04"/>
    <path d="M28.9669 20.2656H28.9648C28.6715 20.2656 28.4326 20.5029 28.4315 20.7968L28.3984 29.3301C28.3974 29.6245 28.6347 29.8645 28.9296 29.8656H28.9318C29.2256 29.8656 29.464 29.6283 29.4651 29.3344L29.4981 20.8011C29.4992 20.5067 29.2619 20.2667 28.9669 20.2656Z" fill="#F09F04"/>
    <path d="M24.102 6.7652C24.03 6.54708 23.8263 6.40039 23.5964 6.40039C23.3665 6.40039 23.1633 6.54708 23.0907 6.7652C22.6897 7.96789 21.5094 7.99989 21.463 8.00039C21.1681 8.00039 20.9297 8.23933 20.9297 8.5337V10.667C20.9297 12.4483 22.1468 14.9337 24.1297 14.9337C26.1126 14.9337 27.3297 12.4484 27.3297 10.667V8.5337C27.3297 8.23933 27.0913 8.00039 26.7964 8.00039C26.7734 8.00039 24.5031 7.96677 24.102 6.7652ZM26.2631 10.6671C26.2631 12.1167 25.3116 13.8671 24.1298 13.8671C22.9479 13.8671 21.9964 12.1167 21.9964 10.6671V9.00202C22.5186 8.88364 23.1634 8.58602 23.637 7.98014C24.3842 8.72733 25.5757 8.96095 26.2631 9.03402V10.6671H26.2631Z" fill="#F09F04"/>
    <path d="M31.3552 16.5336C30.3099 15.4904 28.7397 14.9395 26.8123 14.9395C26.5136 14.9453 26.2645 15.1725 26.2629 15.4712C26.2624 15.58 26.2256 18.1331 24.1296 18.1331C22.0336 18.1331 21.9968 15.5805 21.9963 15.4718C21.9958 15.1779 21.7574 14.94 21.463 14.94C21.1681 14.94 20.9297 15.1784 20.9297 15.4733C20.9297 16.6659 21.5057 18.8381 23.5964 19.1565V21.8664C23.5964 22.1608 23.8347 22.3997 24.1297 22.3997C24.4246 22.3997 24.663 22.1608 24.663 21.8664V19.156C26.463 18.8813 27.1409 17.2343 27.2939 16.0194C28.7083 16.0988 29.8449 16.533 30.6017 17.2887C31.2433 17.9293 31.5964 18.797 31.5964 19.733V28.2663C31.5964 28.5606 31.8347 28.7996 32.1297 28.7996C32.4246 28.7996 32.663 28.5606 32.663 28.2663V19.733C32.6629 18.5117 32.1984 17.3757 31.3552 16.5336Z" fill="#F09F04"/>
    <path d="M16.1271 20.2656C15.8321 20.2656 15.5938 20.5046 15.5938 20.7989V29.3323C15.5938 29.6266 15.8321 29.8656 16.1271 29.8656C16.422 29.8656 16.6604 29.6266 16.6604 29.3323V20.7989C16.6604 20.5046 16.422 20.2656 16.1271 20.2656Z" fill="#F09F04"/>
    <path d="M23.5968 4.26591H24.6635C26.0673 4.26591 27.7728 5.70697 27.8651 6.97366L28.3984 13.907C28.4198 14.1864 28.6534 14.3992 28.9296 14.3992C28.9429 14.3992 28.9574 14.3987 28.9713 14.3976C29.2646 14.3752 29.4843 14.1187 29.4619 13.8248L28.9286 6.89359C28.7862 4.93897 26.4251 3.19922 24.6635 3.19922H23.5968C21.6555 3.19922 19.5035 5.05841 19.3318 6.89147L18.7984 13.8248C18.7761 14.1187 18.9958 14.3752 19.2891 14.3976C19.5883 14.4168 19.8395 14.2003 19.8619 13.9069L20.3948 6.98209C20.5136 5.71284 22.2193 4.26591 23.5968 4.26591Z" fill="#F09F04"/>
    <path d="M12.9654 13.8731C12.7014 13.8689 12.4619 14.0384 12.4086 14.2977L10.2641 24.5872L8.1195 14.2976C8.06563 14.0384 7.81819 13.8736 7.56163 13.8731C4.76 13.8731 2.61656 14.4731 1.52375 15.5632C0.953687 16.1328 0.664062 16.8182 0.664062 17.5995V28.2662C0.664062 28.5606 0.902438 28.7995 1.19737 28.7995C1.49231 28.7995 1.73069 28.5606 1.73069 28.2662V17.5995C1.73069 17.1046 1.90987 16.6854 2.27737 16.3179C3.10831 15.4886 4.87575 14.9952 7.16431 14.944L9.74088 27.3008C9.74088 27.3019 9.74144 27.3029 9.74144 27.304L9.74194 27.3083C9.74569 27.3248 9.75688 27.3376 9.76169 27.3536C9.77712 27.4037 9.79369 27.4533 9.823 27.4965C9.84006 27.5226 9.86569 27.5408 9.887 27.5632C9.91369 27.5899 9.93606 27.6203 9.96756 27.6416C10.0028 27.665 10.0438 27.6763 10.0838 27.6906C10.1084 27.6997 10.1286 27.7163 10.1552 27.7216H10.159C10.1926 27.7285 10.2294 27.7221 10.2646 27.7221C10.2998 27.7221 10.3366 27.7285 10.3708 27.7216H10.3729C10.3905 27.7178 10.4038 27.7066 10.4203 27.7013C10.4699 27.6859 10.5195 27.6693 10.5622 27.6405C10.5889 27.6224 10.6075 27.5962 10.6304 27.5738C10.6561 27.5487 10.6854 27.5269 10.7056 27.4965C10.7344 27.4544 10.7499 27.4053 10.7654 27.3563C10.7707 27.3397 10.7824 27.3259 10.7862 27.3083L10.7867 27.304C10.7867 27.3029 10.7872 27.3019 10.7872 27.3008L13.3638 14.944C15.6529 14.9952 17.4198 15.4891 18.2507 16.3179C18.6182 16.6853 18.7974 17.1046 18.7974 17.5995V28.2662C18.7974 28.5606 19.0358 28.7995 19.3307 28.7995C19.6257 28.7995 19.8641 28.5606 19.8641 28.2662V17.5995C19.8641 16.8182 19.5744 16.1328 19.0043 15.5633C17.9115 14.4726 15.7681 13.8731 12.9654 13.8731Z" fill="#F09F04"/>
  </g>
  <defs>
    <clipPath id="clip0_2_3249">
      <rect width="32" height="32" fill="white" transform="translate(0.664062)"/>
    </clipPath>
  </defs>
</svg>