<svg xmlns="http://www.w3.org/2000/svg" width="32" height="32" viewBox="0 0 32 32" fill="none">
  <g clip-path="url(#clip0_2_3270)">
    <path d="M20.0949 20.5147H20.8223C21.1597 20.5147 21.4332 20.7882 21.4332 21.1256C21.4332 21.463 21.1597 21.7365 20.8223 21.7365H20.0949C19.7575 21.7365 19.484 21.463 19.484 21.1256C19.484 20.7882 19.7575 20.5147 20.0949 20.5147ZM9.29999 8.27324C9.29999 7.50337 9.43324 6.74434 9.68775 6.02876C9.69684 5.99486 9.7089 5.96149 9.7241 5.92904C9.96372 5.28745 10.3015 4.68252 10.7287 4.13838V0.610887C10.7287 0.273524 11.0022 0 11.3396 0H20.6682C21.0056 0 21.2791 0.273524 21.2791 0.610887V4.15052C22.1959 5.32426 22.6981 6.77863 22.6981 8.27316C22.6981 10.7279 21.355 12.9302 19.3119 14.0964L19.1015 15.1731C19.0445 15.4647 18.789 15.667 18.5026 15.667C18.4637 15.667 18.4244 15.6632 18.3848 15.6555C18.0537 15.5908 17.8377 15.27 17.9024 14.9388L17.9525 14.6825C17.741 14.7469 17.525 14.801 17.3045 14.8446C16.9735 14.9099 16.6522 14.6947 16.5868 14.3638C16.5214 14.0328 16.7367 13.7115 17.0676 13.6461C19.6222 13.1412 21.4763 10.8816 21.4763 8.27324C21.4763 7.22717 21.1754 6.20516 20.6187 5.33067C19.4461 6.53458 17.7481 7.43823 15.9292 7.8027C14.0097 8.18733 12.1301 7.94428 10.6408 7.13905C10.5622 7.50978 10.5218 7.88991 10.5218 8.27324C10.5218 10.8816 12.3759 13.1412 14.9305 13.6461C15.2614 13.7114 15.4767 14.0328 15.4113 14.3638C15.3459 14.6948 15.0241 14.9099 14.6936 14.8446C14.4731 14.801 14.257 14.7468 14.0455 14.6825L14.0956 14.9389C14.1603 15.27 13.9443 15.5908 13.6132 15.6555C13.2822 15.7203 12.9612 15.5042 12.8965 15.1731L12.6862 14.0964C10.6432 12.9302 9.29999 10.7279 9.29999 8.27324ZM11.9505 3.74359H20.0573V1.22177H11.9505V3.74359ZM11.0348 5.95958C13.5281 7.46733 17.0754 6.72319 19.2138 4.96536H11.6337C11.3984 5.27585 11.1979 5.60931 11.0348 5.95958ZM23.7638 18.5875V26.5313C23.7638 26.7668 23.6286 26.9813 23.4161 27.0827L18.5928 29.3848L18.6189 29.7667C18.6325 29.9656 18.5481 30.1587 18.393 30.2839L16.4327 31.8646C16.3211 31.9546 16.1852 31.9999 16.0492 31.9999C16.0325 31.9999 16.0158 31.9992 15.9991 31.9979C15.8467 32.0105 15.6909 31.9657 15.5656 31.8645L13.6051 30.2838C13.4499 30.1586 13.3655 29.9655 13.3791 29.7665L13.4052 29.3846L8.58212 27.0825C8.36961 26.9811 8.23438 26.7666 8.23438 26.5312V18.5874C8.23438 18.3557 8.36541 18.144 8.57273 18.0406L11.6459 16.5084C11.7306 16.4661 11.8239 16.4442 11.9185 16.4442H13.564L14.4308 15.7055C14.5412 15.6114 14.6817 15.5596 14.827 15.5596H17.1712C17.3164 15.5596 17.4569 15.6114 17.5674 15.7055L18.4343 16.4443L20.0798 16.4442C20.1745 16.4442 20.2678 16.4662 20.3525 16.5084L23.4255 18.0406C23.6328 18.1442 23.7638 18.3558 23.7638 18.5875ZM14.0971 19.2747L13.3926 18.6743C13.2564 18.5583 13.178 18.3883 13.178 18.2094V17.6661H12.0623L9.45607 18.9655V26.146L13.4949 28.0737L14.0971 19.2747ZM17.3783 29.5326L17.3463 29.0648C17.3457 29.0576 17.3452 29.0505 17.3448 29.0434L16.7228 19.9525H15.2752L14.6535 29.0372C14.653 29.0484 14.6523 29.0596 14.6512 29.0709L14.6196 29.5325L15.999 30.6447L17.3783 29.5326ZM17.5984 17.3373L16.9462 16.7814H15.0519L14.3997 17.3373V17.9274L15.1207 18.5419C15.1225 18.5434 15.1243 18.5449 15.1259 18.5464L15.3423 18.7308H16.6555L17.5984 17.9274L17.5984 17.3373ZM22.542 18.9655L19.936 17.6661H18.8201V18.2094C18.8201 18.3884 18.7417 18.5583 18.6055 18.6743L17.901 19.2746L18.5031 28.0737L22.542 26.1459V18.9655Z" fill="#EA2058"/>
  </g>
  <defs>
    <clipPath id="clip0_2_3270">
      <rect width="32" height="32" fill="white"/>
    </clipPath>
  </defs>
</svg>