<svg xmlns="http://www.w3.org/2000/svg" width="44" height="44" viewBox="0 0 44 44" fill="none">
  <path d="M34.777 20.9193C34.7738 20.8769 34.7727 20.8344 34.7683 20.793C34.7324 19.1819 34.4515 17.88 33.1844 17.3433C31.8454 16.7761 30.6654 16.7685 29.8 17.1049C29.7434 17.1277 29.5953 17.3226 29.5387 17.3585C29.481 17.3944 29.1773 17.2932 29.063 17.3204C27.1634 17.5915 26.5364 19.3811 26.6746 20.7767C27.1286 21.5692 27.2723 22.5685 27.3147 23.6016C28.0223 24.8361 29.2372 25.7842 30.6872 25.7842C32.6238 25.7842 34.1576 24.1492 34.6355 22.3693C34.8184 22.3486 34.9697 22.2104 34.9839 22.021L35.0437 21.3177C35.059 21.1338 34.9436 20.9759 34.777 20.9193ZM30.6839 25.2399C28.6853 25.2399 27.1906 23.1226 27.1906 21.2274C27.1906 21.1381 27.1982 21.051 27.2048 20.9639C28.0375 20.6591 29.6378 20.0223 29.813 19.687C30.5402 20.4425 33.1093 20.8671 34.2382 21.0097C34.2436 21.0815 34.2501 21.1544 34.2501 21.2274C34.248 23.0834 32.6913 25.2399 30.6839 25.2399Z" fill="#564FFD"/>
  <path d="M9.0328 21.3014L9.09267 22.0046C9.11009 22.2028 9.27337 22.3454 9.46714 22.3563C9.93415 24.1405 11.4419 25.7831 13.3523 25.7831C14.8513 25.7831 16.101 24.8012 16.8152 23.5352C16.7999 22.6502 17.0329 21.7412 17.538 20.989C17.5064 20.9661 17.4835 20.9324 17.4454 20.9193C17.4422 20.8769 17.4411 20.8344 17.4367 20.793C17.4008 19.1819 17.12 17.88 15.8528 17.3433C14.5139 16.7761 13.3338 16.7685 12.4684 17.1049C12.4118 17.1277 12.2648 17.3226 12.2071 17.3585C12.1494 17.3944 11.8457 17.2932 11.7314 17.3204C9.83182 17.5915 9.20479 19.3822 9.34304 20.7778C9.33869 20.817 9.33651 20.8562 9.33325 20.8954C9.1471 20.94 9.01538 21.1087 9.0328 21.3014ZM9.87101 20.965C10.7038 20.6602 12.304 20.0234 12.4782 19.6881C13.2054 20.4436 15.7755 20.8681 16.9044 21.0108C16.9099 21.0826 16.9164 21.1555 16.9164 21.2285C16.9164 23.0834 15.3597 25.241 13.3534 25.241C11.3537 25.241 9.86013 23.1237 9.86013 21.2285C9.85795 21.1381 9.86448 21.051 9.87101 20.965Z" fill="#564FFD"/>
  <path d="M19.2497 8.61237C19.5338 9.6977 20.4504 10.697 21.6131 10.697C22.792 10.697 23.7228 9.70205 24.0156 8.61999C24.1277 8.60693 24.2191 8.52311 24.2279 8.40772L24.2638 7.9799C24.2747 7.86777 24.2017 7.77198 24.1027 7.73714C24.1005 7.7121 24.1005 7.68598 24.0983 7.66094C24.0755 6.68121 23.9045 5.8898 23.1338 5.56213C22.3185 5.21705 21.6011 5.2116 21.0742 5.41735C21.0394 5.4315 20.9501 5.55016 20.9153 5.57193C20.8804 5.5937 20.6954 5.53274 20.6257 5.54907C19.4707 5.71345 19.0897 6.80204 19.1735 7.65223C19.1703 7.67509 19.1692 7.70013 19.167 7.72408C19.0549 7.75129 18.9754 7.85362 18.9852 7.97119L19.0222 8.39901C19.032 8.51984 19.1322 8.60693 19.2497 8.61237ZM19.4957 7.76545C20.0019 7.58038 20.9751 7.19284 21.0818 6.98819C21.5238 7.44758 23.087 7.70666 23.7739 7.79266C23.7772 7.83729 23.7815 7.88084 23.7815 7.92547C23.7815 9.05325 22.8334 10.365 21.6131 10.365C20.396 10.365 19.4881 9.0772 19.4881 7.92547C19.4881 7.87104 19.4914 7.81879 19.4957 7.76545Z" fill="#564FFD"/>
  <path d="M13.9662 8.53497C12.3616 8.76357 11.8326 10.2756 11.9491 11.4557C11.9458 11.4883 11.9436 11.5221 11.9404 11.5547C11.7847 11.5928 11.6737 11.7343 11.6889 11.8976L11.7401 12.492C11.7542 12.6596 11.8925 12.7805 12.0558 12.7881C12.4509 14.2947 13.7235 15.6827 15.3379 15.6827C16.974 15.6827 18.2684 14.3012 18.6733 12.799C18.8268 12.7816 18.9542 12.664 18.9683 12.504L19.0184 11.9107C19.0315 11.755 18.9335 11.6222 18.7942 11.5732C18.7909 11.5384 18.7909 11.5025 18.7865 11.4666C18.756 10.1058 18.5187 9.00633 17.4486 8.55239C16.3176 8.0734 15.3204 8.06687 14.59 8.351C14.5421 8.37059 14.418 8.53497 14.369 8.56545C14.32 8.59593 14.0642 8.51102 13.9662 8.53497ZM14.5987 10.5347C15.2127 11.1726 17.3833 11.5319 18.3369 11.6516C18.3413 11.7126 18.3467 11.7735 18.3467 11.8356C18.3467 13.4021 17.0317 15.2233 15.3368 15.2233C13.6473 15.2233 12.3867 13.4347 12.3867 11.8356C12.3867 11.7605 12.3921 11.6864 12.3976 11.6135C13.1008 11.3566 14.4517 10.8167 14.5987 10.5347Z" fill="#564FFD"/>
  <path d="M24.625 12.7879C25.0202 14.2945 26.2927 15.6825 27.9071 15.6825C29.5443 15.6825 30.8376 14.301 31.2426 12.7988C31.3492 12.7868 31.4254 12.7171 31.4777 12.6289L31.5582 12.6202C31.5768 12.6181 31.6094 12.6061 31.6127 12.5734L31.6638 11.9812C31.666 11.941 31.6257 11.9257 31.6214 11.9246L31.5876 11.9127C31.6007 11.757 31.5027 11.6242 31.3623 11.5752C31.3601 11.5404 31.3601 11.5044 31.3558 11.4685C31.3253 10.1078 31.088 9.00828 30.0179 8.55434C28.8868 8.07536 27.8897 8.06883 27.1592 8.35295C27.1113 8.37254 26.9872 8.53692 26.9383 8.5674C26.8904 8.59679 26.6345 8.51297 26.5366 8.53583C24.932 8.76444 24.4029 10.2765 24.5194 11.4565C24.5161 11.4892 24.514 11.5229 24.5096 11.5556C24.3539 11.5937 24.244 11.7352 24.2592 11.8985L24.3104 12.4929C24.3245 12.6583 24.4617 12.7813 24.625 12.7879ZM24.9657 11.6122C25.669 11.3553 27.021 10.8164 27.1669 10.5334C27.7797 11.1713 29.9515 11.5306 30.9062 11.6503C30.9105 11.7113 30.916 11.7722 30.916 11.8343C30.916 13.4008 29.601 15.222 27.906 15.222C26.2154 15.222 24.9548 13.4334 24.9548 11.8343C24.9581 11.7602 24.9614 11.6851 24.9657 11.6122Z" fill="#564FFD"/>
  <path d="M18.8936 13.0163C18.7053 13.627 18.3602 14.2258 17.9062 14.7276L21.602 14.7298V14.7232L25.3762 14.7211C24.9331 14.2214 24.5957 13.6238 24.4106 13.0152C24.207 12.9325 24.0622 12.7442 24.0427 12.5156L23.9915 11.9212C23.9719 11.7024 24.0742 11.4988 24.2484 11.3791C24.2288 11.1701 24.2375 10.9545 24.2604 10.739C24.0405 10.5126 23.7836 10.3525 23.4733 10.3079C23.4124 10.2981 23.3525 10.3123 23.3133 10.3286L22.3401 11.6447L21.6009 11.0558L21.5966 11.059V11.0623L21.5955 11.0612L20.8585 11.6512L19.8853 10.3351C19.8461 10.3199 19.7863 10.3057 19.7264 10.3155C19.4477 10.3547 19.2137 10.4908 19.0079 10.6802C19.034 10.923 19.0515 11.1679 19.058 11.4107C19.2169 11.5326 19.3073 11.7285 19.2899 11.9343L19.2398 12.5265C19.2202 12.7464 19.0863 12.9282 18.8936 13.0163Z" fill="#564FFD"/>
  <path d="M34.5595 22.8496C34.2743 23.5779 33.804 24.2583 33.2031 24.7612C33.8116 24.2517 34.2819 23.5681 34.5595 22.8496Z" fill="#564FFD"/>
  <path d="M12.0384 17.0722C12.0591 17.0755 12.0787 17.0798 12.0972 17.0831C12.1048 17.0744 12.1125 17.0657 12.1212 17.0559C12.2181 16.9492 12.2812 16.8828 12.3672 16.849C12.8571 16.6585 13.4112 16.5856 14.0001 16.6183L12.9354 15.178C12.881 15.1563 12.7983 15.1378 12.7145 15.1508C11.7162 15.2913 11.087 16.259 10.6875 17.3835C10.9825 17.229 11.3069 17.1038 11.6912 17.0483L11.7794 17.0406C11.8512 17.0428 11.9481 17.057 12.0384 17.0722Z" fill="#564FFD"/>
  <path d="M16.7129 24.611L16.7869 25.4765C16.8076 25.7214 17.009 25.8989 17.2474 25.9097C17.8222 28.1043 19.6771 30.128 22.0285 30.128C24.4136 30.128 26.2991 28.1141 26.888 25.925C27.1122 25.8999 27.2973 25.729 27.3191 25.495L27.392 24.6306C27.4127 24.4053 27.2701 24.2104 27.0643 24.1408C27.06 24.0896 27.0589 24.0363 27.0524 23.9851C27.0099 22.0028 26.6648 20.4004 25.1027 19.7396C23.4556 19.0418 22.0035 19.032 20.9388 19.4457C20.8691 19.4729 20.6884 19.7135 20.6177 19.7581C20.5469 19.8016 20.1735 19.6786 20.032 19.7124C17.6948 20.0455 16.923 22.2488 17.0928 23.9666C17.0885 24.0145 17.0841 24.0624 17.0808 24.1114C16.8533 24.1669 16.6911 24.3726 16.7129 24.611ZM17.7449 24.1963C18.7682 23.8218 20.7385 23.038 20.9519 22.6255C21.8478 23.5551 25.0102 24.0776 26.3981 24.2518C26.4046 24.3411 26.4134 24.4303 26.4134 24.5196C26.4134 26.8035 24.4974 29.4564 22.0285 29.4564C19.5672 29.4564 17.7296 26.8503 17.7296 24.5196C17.7286 24.4107 17.7373 24.3041 17.7449 24.1963Z" fill="#564FFD"/>
  <path d="M16.3468 16.9991L15.3214 16.1815L15.3148 16.187V16.1924L15.3138 16.1913L14.6562 16.7149C15.083 16.7944 15.5173 16.9065 15.9582 17.0938C17.4213 17.7132 17.6673 19.2688 17.7054 20.7242C18.2236 20.0776 18.966 19.5888 19.9914 19.4419L20.0905 19.4332C20.1765 19.4332 20.2919 19.4517 20.3997 19.4713C20.4193 19.4745 20.4367 19.4778 20.4552 19.4811C20.1885 17.7556 19.531 15.3705 17.9177 15.143C17.8328 15.1299 17.75 15.1484 17.6956 15.1713L16.3468 16.9991Z" fill="#564FFD"/>
  <path d="M30.4913 15.143C30.4064 15.1299 30.3248 15.1484 30.2703 15.1713L28.9194 17.0001L27.8939 16.1826L27.8874 16.1881V16.1935L27.8863 16.1924L26.8609 17.0099L25.5088 15.1811C25.4555 15.1593 25.3727 15.1408 25.2889 15.1539C23.8509 15.3564 23.1705 17.2756 22.8516 18.9128C23.6038 18.9585 24.4028 19.149 25.2095 19.4898C25.7135 19.7031 26.0934 20.0058 26.3884 20.3693C26.3786 18.9106 27.1548 17.3191 29.0195 17.0524L29.1077 17.0448C29.1785 17.0448 29.2764 17.06 29.3679 17.0763C29.3886 17.0796 29.4082 17.084 29.4267 17.0872C29.4343 17.0785 29.443 17.0698 29.4506 17.06C29.5464 16.9533 29.6096 16.8869 29.6966 16.8532C30.4402 16.5636 31.3328 16.5375 32.2701 16.7628C31.8684 15.9159 31.3012 15.2573 30.4913 15.143Z" fill="#564FFD"/>
  <path d="M22.0097 38.2739L29.755 38.2674C29.755 38.2674 29.5188 29.8645 25.798 29.3409C25.675 29.3202 25.5531 29.3496 25.4758 29.3812L23.5065 32.0439L22.0119 30.8529L22.0032 30.8595V30.8682L22.001 30.866L20.5063 32.058L18.5371 29.3931C18.4587 29.3616 18.3379 29.3344 18.2149 29.3529C14.494 29.8754 14.2578 38.2804 14.2578 38.2804L22.0086 38.2848L22.0097 38.2739Z" fill="#564FFD"/>
  <path d="M30.662 32.4046L36.9562 32.4003C36.9562 32.4003 36.7646 25.5715 33.7405 25.1437C33.6403 25.1285 33.5424 25.1502 33.4792 25.1764L31.8779 27.3416L30.6641 26.3716L30.6565 26.3782V26.3858L30.6554 26.3836L29.4416 27.3525L27.8414 25.1883C27.787 25.1655 27.7021 25.1568 27.6182 25.1611L27.5878 25.5182C27.5649 25.8099 27.3755 26.0494 27.1077 26.1496C26.7245 27.4319 25.8743 28.6947 24.7161 29.509C24.6758 29.7082 24.642 29.902 24.6094 30.0914L25.3006 29.1574L25.3703 29.1291C25.4487 29.0975 25.6359 29.0398 25.8373 29.0714C27.3875 29.2902 28.3596 30.7336 28.9757 32.4133L30.663 32.4155L30.662 32.4046Z" fill="#564FFD"/>
  <path d="M7.03906 32.4108L13.3377 32.4129V32.4021H15.0435C15.6607 30.7311 16.6318 29.2985 18.1765 29.0829C18.3594 29.0557 18.5597 29.1069 18.6369 29.1384L18.7088 29.1668L19.3859 30.0823C19.35 29.8635 19.3097 29.6403 19.2618 29.4106C18.1852 28.5941 17.3927 27.3804 17.0302 26.1426C16.7471 26.0512 16.5425 25.803 16.5164 25.4982L16.4881 25.1629C16.463 25.1585 16.4423 25.1466 16.4162 25.1422C16.3161 25.1259 16.2181 25.1487 16.1539 25.1738L14.5536 27.339L13.3398 26.3702L13.3322 26.3767V26.3832L13.3311 26.381L12.1174 27.3499L10.5171 25.1847C10.4529 25.1607 10.3549 25.1379 10.2548 25.1531C7.23065 25.5798 7.03906 32.4108 7.03906 32.4108Z" fill="#564FFD"/>
</svg>