<svg width="18" height="18" viewBox="0 0 18 18" fill="none" xmlns="http://www.w3.org/2000/svg">
<path fill-rule="evenodd" clip-rule="evenodd" d="M3.38021 6.7538V5.66797C3.38021 4.17613 3.97284 2.74538 5.02773 1.69049C6.08262 0.635601 7.51336 0.0429688 9.00521 0.0429688C10.497 0.0429688 11.9278 0.635601 12.9827 1.69049C14.0376 2.74538 14.6302 4.17613 14.6302 5.66797V6.7538C14.8191 6.76658 14.9974 6.78436 15.1652 6.80713C15.9152 6.90713 16.5469 7.1238 17.0485 7.62463C17.5502 8.1263 17.7652 8.75797 17.8669 9.50797C17.9635 10.2305 17.9635 11.1496 17.9635 12.2888V12.3805C17.9635 13.5196 17.9635 14.4388 17.8669 15.1613C17.7652 15.9113 17.5502 16.543 17.0485 17.0446C16.5469 17.5463 15.9152 17.7613 15.1652 17.863C14.4427 17.9596 13.5235 17.9596 12.3844 17.9596H5.62604C4.48687 17.9596 3.56771 17.9596 2.84521 17.863C2.09521 17.7613 1.46354 17.5463 0.961875 17.0446C0.460208 16.543 0.245208 15.9113 0.144375 15.1613C0.046875 14.4388 0.046875 13.5196 0.046875 12.3805V12.2888C0.046875 11.1496 0.046875 10.2305 0.144375 9.50797C0.244375 8.75797 0.461042 8.1263 0.961875 7.62463C1.46354 7.12297 2.09521 6.90797 2.84521 6.80713C3.01243 6.78436 3.19076 6.76658 3.38021 6.7538ZM4.63021 5.66797C4.63021 4.50765 5.09114 3.39485 5.91161 2.57438C6.73209 1.7539 7.84488 1.29297 9.00521 1.29297C10.1655 1.29297 11.2783 1.7539 12.0988 2.57438C12.9193 3.39485 13.3802 4.50765 13.3802 5.66797V6.71213C13.0691 6.70991 12.7372 6.70908 12.3844 6.70963H5.62604C5.27382 6.70963 4.94187 6.71047 4.63021 6.71213V5.66797ZM1.84604 8.5088C2.07687 8.27797 2.40021 8.12797 3.01271 8.04547C3.64104 7.9613 4.47604 7.95963 5.67187 7.95963H12.3385C13.5344 7.95963 14.3685 7.9613 14.9985 8.04547C15.6102 8.12797 15.9335 8.2788 16.1644 8.5088C16.3952 8.73963 16.5452 9.06297 16.6277 9.67547C16.7119 10.3046 16.7135 11.1388 16.7135 12.3346C16.7135 13.5305 16.7119 14.3646 16.6277 14.9946C16.5452 15.6063 16.3944 15.9296 16.1644 16.1605C15.9335 16.3913 15.6102 16.5413 14.9977 16.6238C14.3685 16.708 13.5344 16.7096 12.3385 16.7096H5.67187C4.47604 16.7096 3.64104 16.708 3.01187 16.6238C2.40021 16.5413 2.07687 16.3905 1.84604 16.1605C1.61521 15.9296 1.46521 15.6063 1.38271 14.9938C1.29854 14.3646 1.29687 13.5305 1.29687 12.3346C1.29687 11.1388 1.29854 10.3038 1.38271 9.67463C1.46521 9.06297 1.61604 8.73963 1.84604 8.5088Z" fill="white"/>
</svg>
