<svg width="90" height="91" viewBox="0 0 90 91" fill="none" xmlns="http://www.w3.org/2000/svg">
<path d="M65.7003 28.2402C70.4182 27.1925 76.5635 22.5097 77.4987 20.2034C78.0471 18.8534 75.312 16.7441 74.5807 15.8933C72.9073 13.9527 73.5823 12.9964 74.2292 10.6831C74.9674 8.05344 73.2167 5.14954 70.7346 4.01048C68.2526 2.87141 65.2854 3.23001 62.7893 4.34095C60.2932 5.45188 58.1628 7.23782 56.0745 8.99563C54.5487 8.03235 52.1159 3.77845 48.1784 6.54173C45.4573 8.4472 45.2112 12.5956 45.5628 15.9074C46.3854 23.5503 48.2698 27.5159 51.8206 28.5847C56.3065 29.9347 61.2706 29.2245 65.7003 28.2402Z" fill="#FFCA28"/>
<path d="M73.3741 6.25C72.7764 16.5508 62.7288 23.3852 57.9616 26.3945L61.0553 29.0523C61.0553 29.0523 63.017 29.0945 65.703 28.2367C70.3084 26.7742 77.0374 22.6398 77.5014 20.2C78.1835 16.6492 74.5413 17.4227 73.7186 14.6172C73.2897 13.1336 75.8069 10.3281 73.3741 6.25ZM56.0913 8.99922C56.0913 8.99922 54.2983 7.16406 52.9694 6.32734C52.3084 7.57187 51.8374 8.92187 51.6053 10.3141C51.1905 12.7609 51.6053 16.2344 52.5827 18.8219C52.7374 19.2227 53.3139 19.1594 53.3772 18.7375C54.221 13.1758 56.0913 8.99922 56.0913 8.99922Z" fill="#E2A610"/>
<path d="M43.5787 27.3344C43.5787 27.3344 21.6482 29.7039 11.7552 48.7445C1.86228 67.7852 10.2717 79.3305 19.1732 83.5352C28.0748 87.7399 50.5045 89.2235 65.0943 85.7641C79.6842 82.3047 83.3334 75.1328 82.6514 68.207C81.6599 58.0961 72.2662 51.8805 72.2662 51.8805C72.2662 51.8805 72.6388 39.393 62.9498 31.2859C54.3506 24.0859 43.5787 27.3344 43.5787 27.3344Z" fill="#FFCA28"/>
<path d="M52.5564 59.3701C47.8525 53.4358 42.2978 52.6412 40.5189 50.5108C39.5486 49.3506 38.9791 48.1764 39.197 46.7209C39.4291 45.174 41.222 44.1053 42.6142 43.8451C44.2384 43.5358 48.1127 43.6975 51.3681 46.7983C52.1416 47.5295 51.8603 48.6686 51.8392 49.6881C51.783 51.8748 54.9119 53.9983 57.4431 52.1701C59.9814 50.335 58.0337 46.2498 56.3955 44.267C55.158 42.7694 50.672 39.4717 45.0962 38.9514C43.5283 38.8037 37.2212 37.8686 33.5791 44.7944C32.5314 46.7842 32.1447 51.5936 37.6291 55.6576C38.7752 56.5084 44.7236 59.5319 46.3759 61.4936C49.2377 64.8897 47.2759 67.878 45.04 68.2717C38.9439 69.3405 35.4916 66.0428 34.8517 64.2358C34.3947 62.949 34.8728 61.5569 34.2822 60.3475C33.6775 59.103 32.44 58.6108 31.1322 59.0256C26.8431 60.3897 28.2072 65.0795 30.1056 67.66C32.1377 70.4233 34.6337 72.0897 37.4392 73.0037C47.9087 76.4139 52.9431 71.028 53.822 67.0834C54.4689 64.1936 54.3986 61.6905 52.5564 59.3701Z" fill="#6B4B46"/>
<path d="M50.0195 34.9453C41.1109 53.9719 39.5781 77.9977 39.5781 77.9977" stroke="#6B4B46" stroke-width="3.51562" stroke-miterlimit="10"/>
<path d="M57.4236 22.9722C63.3579 24.9058 64.6728 30.2707 64.2439 31.7332C63.7306 33.4488 57.1564 26.7691 47.3829 27.1699C43.9657 27.3105 44.9571 25.2152 46.5392 24.0058C48.6275 22.4097 52.1361 21.2566 57.4236 22.9722Z" fill="#6D4C41"/>
<path d="M57.4236 22.9722C63.3579 24.9058 64.6728 30.2707 64.2439 31.7332C63.7306 33.4488 57.1564 26.7691 47.3829 27.1699C43.9657 27.3105 44.9571 25.2152 46.5392 24.0058C48.6275 22.4097 52.1361 21.2566 57.4236 22.9722Z" fill="#6B4B46"/>
<path d="M67.8405 41.886C68.5859 41.3727 71.089 42.2587 71.7921 47.1595C72.1366 49.5571 72.2421 51.8774 72.2421 51.8774C72.2421 51.8774 69.289 49.2266 68.3116 47.3634C67.0812 45.0079 66.603 42.7298 67.8405 41.886Z" fill="#E2A610"/>
</svg>
