<svg width="26" height="30" viewBox="0 0 26 30" fill="none" xmlns="http://www.w3.org/2000/svg">
<g id="Group 2">
<path id="Vector" d="M25.5584 12.7785C25.5584 19.8359 19.8363 25.557 12.7777 25.557C12.5555 25.557 12.3362 25.5511 12.1169 25.5392L9.00545 29.6101L11.4205 25.483L12.3866 23.8356L19.1992 12.1919C19.2407 12.2008 19.2851 12.2126 19.3266 12.2185C19.4955 12.2511 19.6644 12.2659 19.8333 12.2659C20.1148 12.2659 20.3904 12.2245 20.6542 12.1415H20.6571L20.7134 12.1208C20.9327 12.0467 21.1372 11.946 21.3239 11.8245L22.5418 11.9045L13.4326 23.8267C19.2407 23.489 23.8486 18.6745 23.8486 12.7785C23.8486 6.66628 18.894 1.71249 12.7807 1.71249C6.66741 1.71249 1.71278 6.66628 1.71278 12.7785C1.71278 17.8508 5.12649 22.1261 9.78183 23.4327L9.14472 25.0326C3.85524 23.4682 0 18.5737 0 12.7785C0 5.72115 5.72212 0 12.7836 0C19.8363 0 25.5584 5.72115 25.5584 12.7785Z" fill="url(#paint0_linear_5427_9876)"/>
<path id="Vector_2" d="M19.2162 12.1947L12.4036 23.8385L11.4375 25.4858L9.02246 29.6129L10.7708 25.3969L11.4464 23.7614L16.5492 11.4629L18.0398 11.5844C18.2087 11.7325 18.3983 11.8629 18.6058 11.9695L18.6858 12.008H18.6887C18.8606 12.091 19.0354 12.1532 19.2162 12.1947Z" fill="url(#paint1_linear_5427_9876)"/>
<path id="Vector_3" d="M22.1953 9.53942C22.1953 10.5794 21.5256 11.4623 20.5921 11.7793H20.5892C20.3521 11.8623 20.0943 11.9067 19.8276 11.9067C19.6794 11.9067 19.5313 11.8919 19.389 11.8652C19.1638 11.8237 18.9534 11.7497 18.7549 11.6489C18.3726 11.4534 18.0467 11.1571 17.8214 10.7927C17.5933 10.4283 17.4629 10.0016 17.4629 9.53942C17.4629 9.24315 17.5162 8.96168 17.617 8.70095L17.6377 8.76021C17.6377 8.76317 17.6407 8.76317 17.6436 8.76317C18.1533 8.57947 18.6838 8.46393 19.232 8.42245C19.2438 8.42245 19.2527 8.41653 19.2586 8.40764C19.5935 7.98988 19.9817 7.62843 20.4203 7.31733C20.4232 7.31437 20.4232 7.30844 20.4203 7.30548L20.3728 7.23438C21.4189 7.48029 22.1953 8.41949 22.1953 9.53942Z" fill="url(#paint2_linear_5427_9876)"/>
<path id="Vector_4" d="M15.3233 10.6016C15.3233 10.6016 10.6946 22.5268 10.585 22.6364L12.5407 11.2949C12.6356 11.3067 12.7304 11.3126 12.8252 11.3126C13.0682 11.3126 13.3082 11.2771 13.5364 11.206H13.5394L13.6046 11.1852C13.9661 11.0638 14.2831 10.8593 14.541 10.6016H15.3233Z" fill="url(#paint3_linear_5427_9876)"/>
<path id="Vector_5" d="M12.5412 11.2948L10.5855 22.6364L10.2832 10.3438L10.9411 10.4119C11.1514 10.6726 11.4181 10.8948 11.7293 11.0519L11.8182 11.0963H11.8212C11.996 11.1793 12.1827 11.2385 12.3753 11.2711C12.4316 11.283 12.4879 11.2889 12.5412 11.2948Z" fill="url(#paint4_linear_5427_9876)"/>
<path id="Vector_6" d="M8.64708 9.28906C8.64708 9.28906 9.68424 21.0217 9.60126 21.1047L6.61426 9.92014C6.66167 9.9231 6.70612 9.92606 6.75353 9.92606C6.94318 9.92606 7.12988 9.8994 7.30768 9.84607H7.31063L7.37583 9.82533C7.69586 9.71867 7.97442 9.52905 8.18778 9.28906H8.64708Z" fill="url(#paint5_linear_5427_9876)"/>
<path id="Vector_7" d="M6.61401 9.91842L9.60102 21.1029L4.82715 9.0918L5.19164 9.12735C5.36351 9.3703 5.60057 9.57177 5.87912 9.71398L5.96802 9.75842H5.97098C6.1073 9.81768 6.24953 9.86212 6.39473 9.88879C6.46585 9.9036 6.53993 9.91545 6.61401 9.91842Z" fill="url(#paint6_linear_5427_9876)"/>
<path id="Vector_8" d="M14.8316 8.89643C14.8316 9.77638 14.2627 10.526 13.4715 10.7956C13.27 10.8667 13.0507 10.9022 12.8255 10.9022C12.6981 10.9022 12.5736 10.8904 12.4521 10.8667C12.2625 10.8311 12.0817 10.7689 11.9158 10.683C11.2668 10.3512 10.8193 9.67564 10.8193 8.89643C10.8193 7.78835 11.7172 6.89062 12.8255 6.89062C13.9338 6.89359 14.8316 7.78835 14.8316 8.89643Z" fill="url(#paint7_linear_5427_9876)"/>
<path id="Vector_9" d="M8.27367 7.99748C8.27367 8.66411 7.84399 9.23296 7.2454 9.43443C7.09131 9.48776 6.92833 9.51442 6.75646 9.51442C6.65867 9.51442 6.56681 9.50554 6.47495 9.48776C6.32975 9.4611 6.19344 9.41369 6.06898 9.34851C5.57707 9.09667 5.23926 8.58412 5.23926 7.99452C5.23926 7.15605 5.92082 6.47461 6.75943 6.47461C7.59212 6.48053 8.27367 7.15901 8.27367 7.99748Z" fill="url(#paint8_linear_5427_9876)"/>
<g id="Group 3">
<path id="Vector_10" d="M15.5104 8.06889C15.3689 7.81262 15.2274 7.54407 15.0819 7.26643C15.1046 7.26245 15.1273 7.25944 15.1499 7.25738L15.1499 7.25744L15.1528 7.25706C15.9468 7.15423 16.7583 7.05139 17.5933 6.94557C17.7412 6.92683 17.8898 6.908 18.0392 6.88905L18.0392 6.88909L18.0417 6.8887C18.161 6.86961 18.2806 6.85525 18.4019 6.84069L18.402 6.84129L18.4114 6.83895C18.4477 6.82986 18.474 6.81117 18.4954 6.78973L18.4955 6.78979L18.498 6.78704L18.7353 6.52555L18.7354 6.52548L21.3207 3.66948C21.3294 3.66049 21.3385 3.64823 21.3442 3.63257C21.3503 3.61586 21.354 3.58988 21.3407 3.56328C21.327 3.53583 21.3027 3.52286 21.2834 3.51805C21.2666 3.51385 21.2508 3.5148 21.2384 3.51697L17.074 4.05376C17.0496 4.05505 17.0283 4.06376 17.0135 4.07158C16.9965 4.08058 16.9806 4.09239 16.9679 4.1051L16.9678 4.10504L16.9653 4.10782C16.1169 5.04358 15.2684 5.98328 14.4165 6.92686C14.3249 7.0283 14.2333 7.12979 14.1416 7.23132L14.1346 7.23907L14.1299 7.24841C14.1298 7.24858 14.1297 7.24878 14.1296 7.24902C14.1268 7.25445 14.1142 7.27908 14.1203 7.30927C14.1281 7.34828 14.1584 7.36534 14.1691 7.37066L14.1852 7.37876H14.2033H14.2227V7.37947L14.2331 7.37805C14.3256 7.36544 14.4199 7.35352 14.5138 7.34166C14.6197 7.32828 14.7251 7.31496 14.8268 7.30079C14.948 7.53863 15.0664 7.7628 15.1794 7.97693C15.2095 8.03389 15.2392 8.09015 15.2684 8.14576C15.2917 8.1926 15.3024 8.24097 15.2991 8.28747C15.2952 8.32229 15.302 8.35582 15.32 8.38569C15.3338 8.40875 15.3526 8.42688 15.3725 8.44138L15.4893 8.78693C15.4968 8.82472 15.5275 8.84456 15.5459 8.85144C15.568 8.85974 15.5965 8.86075 15.6228 8.84761L15.6228 8.84763L15.6245 8.84673L15.8484 8.72767C15.8718 8.71762 15.8933 8.69811 15.9028 8.66949C15.9133 8.63788 15.9059 8.60411 15.8846 8.57959L15.6668 8.29831C15.6697 8.2673 15.6651 8.2361 15.65 8.2069C15.6319 8.172 15.603 8.14785 15.5725 8.13091L15.5725 8.13085L15.5695 8.12936C15.5423 8.11576 15.5237 8.09817 15.5133 8.07479L15.5135 8.07467L15.5104 8.06889Z" fill="url(#paint9_linear_5427_9876)" stroke="white" stroke-width="0.153351"/>
<path id="Vector_11" d="M21.1493 6.48839L21.1499 6.48929L21.1592 6.48008C21.1792 6.46002 21.1853 6.43501 21.1853 6.41617C21.1853 6.39984 21.1807 6.37889 21.1665 6.36054L21.0912 6.24773L21.0912 6.24772L21.0907 6.24693L20.248 5.01693L20.2439 5.01107L20.2389 5.00605C20.226 4.99317 20.2051 4.97997 20.1768 4.97997C20.1551 4.97997 20.138 4.98821 20.1311 4.99169L20.1181 4.99819L20.1083 5.009L18.9412 6.3067L18.9411 6.30678L18.4643 6.83542L17.7582 6.92605L17.7582 6.92606L16.0146 7.1488L15.9886 7.15212L15.9701 7.17064C15.9699 7.17084 15.9697 7.17107 15.9694 7.17133C15.9625 7.17813 15.938 7.20243 15.938 7.24423V7.25735L15.9423 7.26972L16.4508 8.71262L16.4509 8.71276L16.4829 8.80431C16.4854 8.81402 16.4898 8.82427 16.4974 8.83397C16.5099 8.85016 16.5255 8.85766 16.5358 8.8611C16.5457 8.86439 16.5541 8.86514 16.5581 8.86541C16.5622 8.86569 16.5661 8.86566 16.5668 8.86566H16.5802L16.5928 8.86112C17.4187 8.56344 18.2781 8.37614 19.1663 8.30873C19.212 8.30757 19.2467 8.28362 19.2679 8.25374C19.8101 7.57765 20.4388 6.99241 21.1493 6.48839Z" fill="url(#paint10_linear_5427_9876)" stroke="white" stroke-width="0.153351"/>
</g>
</g>
<defs>
<linearGradient id="paint0_linear_5427_9876" x1="5.24931" y1="34.1138" x2="21.0424" y2="10.0636" gradientUnits="userSpaceOnUse">
<stop stop-color="#C83B62"/>
<stop offset="1" stop-color="#7F35CD"/>
</linearGradient>
<linearGradient id="paint1_linear_5427_9876" x1="17.4882" y1="11.5829" x2="11.5242" y2="30.413" gradientUnits="userSpaceOnUse">
<stop stop-color="#C83B62"/>
<stop offset="1" stop-color="#7F35CD"/>
</linearGradient>
<linearGradient id="paint2_linear_5427_9876" x1="17.4629" y1="9.57053" x2="22.3158" y2="9.60258" gradientUnits="userSpaceOnUse">
<stop stop-color="#C83B62"/>
<stop offset="1" stop-color="#7F35CD"/>
</linearGradient>
<linearGradient id="paint3_linear_5427_9876" x1="11.5581" y1="24.4669" x2="18.1132" y2="19.9137" gradientUnits="userSpaceOnUse">
<stop stop-color="#C83B62"/>
<stop offset="1" stop-color="#7F35CD"/>
</linearGradient>
<linearGradient id="paint4_linear_5427_9876" x1="12.1585" y1="10.425" x2="5.14581" y2="17.6666" gradientUnits="userSpaceOnUse">
<stop stop-color="#C83B62"/>
<stop offset="1" stop-color="#7F35CD"/>
</linearGradient>
<linearGradient id="paint5_linear_5427_9876" x1="7.22871" y1="22.9018" x2="12.3437" y2="20.6169" gradientUnits="userSpaceOnUse">
<stop stop-color="#C83B62"/>
<stop offset="1" stop-color="#7F35CD"/>
</linearGradient>
<linearGradient id="paint6_linear_5427_9876" x1="8.79176" y1="9.17123" x2="3.67925" y2="20.5943" gradientUnits="userSpaceOnUse">
<stop stop-color="#C83B62"/>
<stop offset="1" stop-color="#7F35CD"/>
</linearGradient>
<linearGradient id="paint7_linear_5427_9876" x1="10.8193" y1="8.89643" x2="14.9338" y2="8.92326" gradientUnits="userSpaceOnUse">
<stop stop-color="#C83B62"/>
<stop offset="1" stop-color="#7F35CD"/>
</linearGradient>
<linearGradient id="paint8_linear_5427_9876" x1="5.23926" y1="7.99452" x2="8.35095" y2="8.01477" gradientUnits="userSpaceOnUse">
<stop stop-color="#C83B62"/>
<stop offset="1" stop-color="#7F35CD"/>
</linearGradient>
<linearGradient id="paint9_linear_5427_9876" x1="14.1953" y1="6.18636" x2="21.453" y2="6.25092" gradientUnits="userSpaceOnUse">
<stop stop-color="#C83B62"/>
<stop offset="1" stop-color="#7F35CD"/>
</linearGradient>
<linearGradient id="paint10_linear_5427_9876" x1="16.0146" y1="6.92281" x2="21.2381" y2="6.9693" gradientUnits="userSpaceOnUse">
<stop stop-color="#C83B62"/>
<stop offset="1" stop-color="#7F35CD"/>
</linearGradient>
</defs>
</svg>
