<svg width="90" height="91" viewBox="0 0 90 91" fill="none" xmlns="http://www.w3.org/2000/svg">
<path d="M82.9868 72.4445L50.8259 86.9852C48.8431 87.9203 46.7759 87.8289 44.8775 86.732L4.27902 66.1164C3.11886 65.3711 2.77433 64.2812 2.84465 63.5219C2.91496 62.7625 3.09074 61.9398 5.1298 61.3492L8.13918 60.2383L48.8642 82.4359L77.8048 70.6094L82.9868 72.4445Z" fill="#01579B"/>
<path d="M50.4396 84.6563C49.6354 85.0336 48.7529 85.2138 47.8651 85.182C46.9774 85.1502 46.11 84.9073 45.3349 84.4734L5.69973 64.5047C5.13723 64.1953 4.96848 63.4852 5.30598 62.9367C6.17785 61.4953 7.78098 56.9391 5.13723 53.1562L49.8982 74.707L50.4396 84.6563Z" fill="#F5F5F5"/>
<path d="M81.2719 70.7978L50.4398 84.6564C49.4203 85.0993 47.3883 85.8868 45.0469 84.3118C46.8961 84.4454 48.1969 83.679 48.8648 82.4345C49.5188 81.2251 49.3219 79.2423 48.5273 78.1243C48.0422 77.4493 46.7414 76.3735 46.1719 75.7689L79.5211 62.7259C82.4742 61.5095 85.2445 63.3306 85.6875 65.5454C86.1797 68.0485 82.9875 70.0946 81.2719 70.7978Z" fill="#94C6D6"/>
<path d="M82.8124 61.6441L50.982 75.8473C48.9781 76.6418 46.7351 76.5363 44.8156 75.566L4.1468 54.9082C3.75305 54.7113 3.16945 54.1699 2.93742 53.4316C2.55774 52.2012 3.03586 50.6543 4.47727 50.1621L48.5491 72.627L78.7273 59.7105L82.8124 61.6441Z" fill="#01579B"/>
<path d="M85.213 63.7032L81.7466 62.4446L74.6028 62.8595L50.9919 73.3993C48.988 74.1938 46.745 74.0884 44.8255 73.1181L4.14968 52.4673C3.10202 51.9329 3.32702 50.379 4.48015 50.161L33.7934 37.0478C34.6302 36.8931 35.488 36.9845 36.2684 37.3149L78.0973 57.2556C78.0973 57.2556 84.7419 61.8048 85.213 63.7032Z" fill="#0091EA"/>
<path d="M74.2 63.064C74.2 63.064 78.6016 61.3414 82.0609 61.496C85.5203 61.6507 86.7227 64.0765 86.7227 64.0765C86.0688 61.1023 82.9961 59.5835 82.9961 59.5835L37.293 36.5703C36.9766 36.4367 35.8094 36.1625 34.0164 36.9007C32.568 37.4984 27.8359 39.7132 27.8359 39.7132L74.2 63.064Z" fill="#616161"/>
<path d="M86.9188 64.6398C86.5883 63.3249 85.7727 61.9187 84.268 61.2367C82.2852 60.3437 79.4586 60.5757 77.6516 61.5179L74.1992 63.0507V65.4835L78.5656 63.5429C82.8125 61.6515 84.6969 64.4851 84.8586 65.1531C85.5336 67.8742 84.2258 69.4492 80.3656 71.221L74.0938 74.0476V76.4945L81.3078 73.2812C84.5 72.0015 88.1422 69.5968 86.9188 64.6398Z" fill="#424242"/>
<path d="M23.2133 63.9996L11.0703 47.216L12.9758 46.3652L26.6375 65.1387L23.2133 63.9996ZM38.7875 71.734L36.6219 70.0184L74.2039 62.3473V63.5777L68.9375 65.5746L38.7875 71.734Z" fill="#01579B"/>
<path d="M10.4062 32.9703L57.8742 25.0391L78.6094 47.8695C79.657 48.9734 79.0875 50.8016 77.5969 51.1039L28.5891 61.1586L10.4062 32.9703Z" fill="#9CCC65"/>
<path d="M77.5984 49.1348L28.9281 58.9926L28.7734 61.3129L77.5984 51.3004C78.9766 51.0121 79.5531 49.4371 78.8008 48.3262C78.5336 48.7199 78.1258 49.0293 77.5984 49.1348ZM80.2211 59.7731C80.7344 60.5887 80.2703 61.6645 79.3281 61.8543L34.525 70.9387C31.832 71.4941 29.1883 69.7293 28.9492 66.9871C28.7453 64.6668 30.3133 62.5645 32.5984 62.0863L75.6859 52.4113L80.2211 59.7731Z" fill="#689F38"/>
<path d="M39.0855 56.8207L21.2402 31.2832L11.059 33.9762C8.70348 36.3176 9.58239 40.1637 9.58239 40.1637C9.58239 40.1637 25.1707 65.1809 27.6316 68.3801C30.0925 71.5793 33.6855 71.0801 33.6855 71.0801L39.7535 69.8566L39.1207 58.5363L39.0855 56.8207Z" fill="#616161"/>
<path d="M39.0869 56.9887L30.5158 58.7605C28.1744 59.2879 27.7525 61.4887 27.7525 61.4887L7.05958 31.8379C7.05958 31.8379 4.11348 35.4027 6.06817 38.4332L27.633 68.3793C29.9885 71.7332 33.6869 71.1074 33.6869 71.1074L39.7549 69.884L39.1291 58.7887L39.0869 56.9887Z" fill="#424242"/>
<path d="M77.5232 58.8602C77.7411 59.3383 77.4599 59.8937 76.9466 59.9992L34.1052 68.7883C31.4122 69.3437 29.5068 67.5578 29.6052 65.125C29.7318 62.0523 31.4544 60.7516 33.7326 60.2805L76.7849 51.4844C76.7849 51.4844 75.3224 53.1297 76.4404 56.2094C76.82 57.2711 77.2279 58.2133 77.5232 58.8602Z" fill="#B9E4EA"/>
<path d="M31.7883 59.3523L13.4297 33.3789" stroke="#424242" stroke-width="0.388313" stroke-miterlimit="10"/>
<path d="M33.2312 48.2777L9.62031 36.3809L8.66406 38.2652L35.9453 52.166L33.2312 48.2777Z" fill="#424242"/>
<path d="M76.4898 45.5215L74.7602 43.623L48.1609 55.8293L33.2266 48.4395L35.7719 52.0816L45.6648 57.1371L53.0336 56.0051L76.4898 45.5215Z" fill="#689F38"/>
<path d="M82.9798 40.8238L50.8259 55.3645C48.8431 56.2996 46.7759 56.2082 44.8775 55.1113L4.27902 34.4957C3.11886 33.7504 2.77433 32.6605 2.84465 31.9012C2.91496 31.1418 3.09074 30.3191 5.1298 29.7285L7.03527 29.0254L48.7446 49.4934L82.6142 35.4801L82.9798 40.8238Z" fill="#C62828"/>
<path d="M50.4318 53.0371C49.6276 53.4144 48.7451 53.5947 47.8573 53.5629C46.9696 53.5311 46.1022 53.2882 45.3271 52.8543L5.69192 32.8855C5.12942 32.5762 4.96067 31.866 5.29817 31.3176C6.17004 29.8762 7.77317 25.3199 5.12942 21.5371L48.8919 43.798L50.4318 53.0371Z" fill="#F5F5F5"/>
<path d="M81.2641 39.1786L50.432 53.0372C49.4125 53.4802 47.3805 54.2677 45.0391 52.6927C46.8883 52.8263 48.1891 52.0599 48.857 50.8153C49.5109 49.606 49.3141 47.6232 48.5195 46.5052C48.0344 45.8302 46.7336 44.7544 46.1641 44.1497L79.5133 31.1067C82.4664 29.8903 85.2367 31.7114 85.6797 33.9263C86.1719 36.4294 82.9797 38.4755 81.2641 39.1786Z" fill="#94C6D6"/>
<path d="M82.815 30.0246L50.9845 44.2277C48.9806 45.0223 46.7376 44.9168 44.8181 43.9465L4.14232 23.2887C3.72045 23.0777 3.08764 22.5363 2.88373 21.7699C2.58139 20.6309 2.97514 19.1332 4.47279 18.5426L41.7454 10.6465L82.815 30.0246Z" fill="#C62828"/>
<path d="M85.2057 32.0841L81.7393 30.8255L74.5955 31.2403L50.9846 41.7802C48.9807 42.5747 46.7377 42.4692 44.8182 41.4989L4.14242 20.8411C3.09476 20.3067 3.46742 18.8935 4.47288 18.5349L33.7932 5.42861C34.6299 5.27393 35.4877 5.36533 36.2682 5.6958L78.0971 25.6364C78.0971 25.6364 84.7346 30.1786 85.2057 32.0841Z" fill="#F44336"/>
<path d="M74.2008 31.4371C74.2008 31.4371 77.8641 30.1503 81.3234 30.305C84.7828 30.4597 86.7305 32.4496 86.7305 32.4496C86.0203 29.2714 83.0039 27.9566 83.0039 27.9566L37.3008 4.94331C36.9844 4.80972 35.8172 4.5355 34.0242 5.27378C32.5758 5.87144 27.8438 8.08628 27.8438 8.08628L74.2008 31.4371Z" fill="#616161"/>
<path d="M78.382 29.9324L31.6172 6.34258L33.1641 5.64648L80.7234 29.4824L78.382 29.9324Z" fill="#424242"/>
<path d="M86.9109 33.0194C86.5805 31.7045 86.025 30.4319 84.457 29.7709C82.4531 28.9272 80.625 28.7514 77.6437 29.8975L74.1914 31.4303V33.8631L78.5578 31.9225C80.7727 30.8819 84.0352 31.1069 84.8508 33.5326C85.7437 36.1904 84.218 37.8287 80.3578 39.6006L74.0859 42.4272V44.874L81.3 41.6608C84.4992 40.3811 88.1414 37.9764 86.9109 33.0194Z" fill="#424242"/>
</svg>
