<svg width="90" height="91" viewBox="0 0 90 91" fill="none" xmlns="http://www.w3.org/2000/svg">
<path d="M12 19L9.5 16V13H14.5V16L12 19Z" fill="#FF9800"/>
<path d="M16.5 11C17.0523 11 17.5 10.5523 17.5 10C17.5 9.44772 17.0523 9 16.5 9C15.9477 9 15.5 9.44772 15.5 10C15.5 10.5523 15.9477 11 16.5 11Z" fill="#FFA726"/>
<path d="M7.5 11C8.05228 11 8.5 10.5523 8.5 10C8.5 9.44772 8.05228 9 7.5 9C6.94772 9 6.5 9.44772 6.5 10C6.5 10.5523 6.94772 11 7.5 11Z" fill="#FFA726"/>
<path d="M16.5 7.00042C16.5 3.20042 7.5 4.50042 7.5 7.00042V10.5004C7.5 13.0004 9.5 15.0004 12 15.0004C14.5 15.0004 16.5 13.0004 16.5 10.5004V7.00042Z" fill="#FFB74D"/>
<path d="M12 2.5C8.95 2.5 7 4.95 7 8V9.15L8 10V7.5L14 5.5L16 7.5V10L17 9.15V8C17 6 16.5 4 14 3.5L13.5 2.5H12Z" fill="#424242"/>
<path d="M14 10.5C14.2761 10.5 14.5 10.2761 14.5 10C14.5 9.72386 14.2761 9.5 14 9.5C13.7239 9.5 13.5 9.72386 13.5 10C13.5 10.2761 13.7239 10.5 14 10.5Z" fill="#784719"/>
<path d="M10 10.5C10.2761 10.5 10.5 10.2761 10.5 10C10.5 9.72386 10.2761 9.5 10 9.5C9.72386 9.5 9.5 9.72386 9.5 10C9.5 10.2761 9.72386 10.5 10 10.5Z" fill="#784719"/>
<path d="M12 22L9.5 16L12 16.5L14.5 16L12 22Z" fill="white"/>
<path d="M11.5 18L11.15 20.25L12 22.25L12.85 20.25L12.5 18L13 17.5L12 16.5L11 17.5L11.5 18Z" fill="#D32F2F"/>
<path d="M14.5 16L12 22L9.5 16C9.5 16 4 17 4 22.5H20C20 17 14.5 16 14.5 16Z" fill="#546E7A"/>
</svg>
