<svg width="90" height="91" viewBox="0 0 90 91" fill="none" xmlns="http://www.w3.org/2000/svg">
<path d="M45 69.875L35.625 58.625V47.375H54.375V58.625L45 69.875Z" fill="#FF9800"/>
<path d="M61.875 39.875C63.9461 39.875 65.625 38.1961 65.625 36.125C65.625 34.0539 63.9461 32.375 61.875 32.375C59.8039 32.375 58.125 34.0539 58.125 36.125C58.125 38.1961 59.8039 39.875 61.875 39.875Z" fill="#FFA726"/>
<path d="M28.125 39.875C30.1961 39.875 31.875 38.1961 31.875 36.125C31.875 34.0539 30.1961 32.375 28.125 32.375C26.0539 32.375 24.375 34.0539 24.375 36.125C24.375 38.1961 26.0539 39.875 28.125 39.875Z" fill="#FFA726"/>
<path d="M61.875 24.8756C61.875 10.6256 28.125 15.5006 28.125 24.8756V38.0006C28.125 47.3756 35.625 54.8756 45 54.8756C54.375 54.8756 61.875 47.3756 61.875 38.0006V24.8756Z" fill="#FFB74D"/>
<path d="M45 8C33.5625 8 26.25 17.1875 26.25 28.625V32.9375L30 36.125V26.75L52.5 19.25L60 26.75V36.125L63.75 32.9375V28.625C63.75 21.125 61.875 13.625 52.5 11.75L50.625 8H45Z" fill="#424242"/>
<path d="M52.5 38C53.5355 38 54.375 37.1605 54.375 36.125C54.375 35.0895 53.5355 34.25 52.5 34.25C51.4645 34.25 50.625 35.0895 50.625 36.125C50.625 37.1605 51.4645 38 52.5 38Z" fill="#784719"/>
<path d="M37.5 38C38.5355 38 39.375 37.1605 39.375 36.125C39.375 35.0895 38.5355 34.25 37.5 34.25C36.4645 34.25 35.625 35.0895 35.625 36.125C35.625 37.1605 36.4645 38 37.5 38Z" fill="#784719"/>
<path d="M45 81.125L35.625 58.625L45 60.5L54.375 58.625L45 81.125Z" fill="white"/>
<path d="M43.125 66.125L41.8125 74.5625L45 82.0625L48.1875 74.5625L46.875 66.125L48.75 64.25L45 60.5L41.25 64.25L43.125 66.125Z" fill="#D32F2F"/>
<path d="M54.375 58.625L45 81.125L35.625 58.625C35.625 58.625 15 62.375 15 83H75C75 62.375 54.375 58.625 54.375 58.625Z" fill="#546E7A"/>
</svg>
