<svg width="65" height="18" viewBox="0 0 65 18" fill="none" xmlns="http://www.w3.org/2000/svg">
<g id="Group 5">
<g id="Group 7">
<path id="Vector" d="M7.93658 4.4458C8.11785 4.43138 8.29999 4.45937 8.46857 4.52756C8.63715 4.59576 8.78754 4.70228 8.90783 4.83869C9.01873 4.99119 9.09178 5.16789 9.12096 5.3542C9.15014 5.5405 9.13461 5.73107 9.07566 5.9102L8.5936 8.19965C8.51014 8.61019 8.28829 8.97963 7.96514 9.24616C7.64759 9.50331 7.24879 9.63881 6.84035 9.62833H1.64485C1.46545 9.64462 1.28474 9.61853 1.11727 9.55214C0.949806 9.48576 0.800277 9.38095 0.680738 9.24616C0.576173 9.09545 0.506256 8.92345 0.476005 8.74252C0.445754 8.56158 0.455918 8.37619 0.505769 8.19965L0.762866 6.94956H3.84088L3.51951 8.48896H5.46559L6.07977 5.59589H2.50184C2.32179 5.60863 2.14122 5.57984 1.97405 5.51172C1.80689 5.4436 1.65761 5.33798 1.53773 5.203C1.42762 5.05012 1.35505 4.87345 1.32589 4.68729C1.29674 4.50114 1.31181 4.31074 1.3699 4.13149L1.85196 1.82775C1.93723 1.41606 2.16015 1.0457 2.48398 0.777675C2.79797 0.515069 3.19599 0.374332 3.60521 0.381217H8.79357C8.97548 0.358617 9.16015 0.38309 9.3299 0.452293C9.49966 0.521496 9.64882 0.633112 9.76312 0.776466C9.87741 0.919819 9.95302 1.09011 9.9827 1.27105C10.0124 1.45199 9.99515 1.63752 9.93265 1.80989L9.67912 3.05284H6.59753L6.9189 1.52773H4.99068L4.39436 4.4458H7.93658Z" fill="url(#paint0_linear_5427_9890)"/>
<path id="Vector_2" d="M18.9168 1.55271H16.6136L14.8996 9.6283H11.8216L13.5356 1.53842H11.2324L11.4717 0.384766H19.156L18.9168 1.55271Z" fill="url(#paint1_linear_5427_9890)"/>
<path id="Vector_3" d="M26.8296 8.19935C26.7455 8.61066 26.5238 8.98104 26.2011 9.24943C25.883 9.5053 25.4843 9.63952 25.0763 9.62803H19.8808C19.6992 9.64258 19.5167 9.61429 19.348 9.54543C19.1793 9.47658 19.0291 9.36907 18.9095 9.23157C18.8053 9.08345 18.736 8.91358 18.7069 8.73477C18.6778 8.55596 18.6897 8.37289 18.7417 8.19935L20.3879 0.402344H23.4694L21.7555 8.49223H23.6765L25.3905 0.402344H28.4685L26.8296 8.19935Z" fill="url(#paint2_linear_5427_9890)"/>
<path id="Vector_4" d="M36.3353 8.19944C36.2527 8.61128 36.0307 8.98208 35.7069 9.24952C35.3888 9.50539 34.9901 9.63961 34.5821 9.62812H27.9404L29.8972 0.384577H36.5317C36.7128 0.370023 36.8948 0.39833 37.0629 0.467207C37.231 0.536085 37.3806 0.643596 37.4994 0.781036C37.6072 0.930917 37.6785 1.1039 37.7076 1.2862C37.7368 1.46851 37.7229 1.65509 37.6673 1.83111L36.3353 8.19944ZM32.736 1.55252L31.2613 8.48875H33.1895L34.6642 1.55252H32.736Z" fill="url(#paint3_linear_5427_9890)"/>
<path id="Vector_5" d="M38.8919 9.62852C38.7108 9.64307 38.5289 9.61477 38.3607 9.54589C38.1926 9.47701 38.0431 9.3695 37.9242 9.23206C37.8165 9.08218 37.7452 8.9092 37.716 8.7269C37.6869 8.54459 37.7007 8.358 37.7564 8.18198L39.0954 1.83151C39.1781 1.41968 39.4001 1.04888 39.7239 0.781437C40.0395 0.519146 40.4385 0.378509 40.8487 0.384979H45.9478L45.7085 1.53863H42.2449L41.6271 4.4317H44.3195L44.0767 5.58179H41.3879L40.7701 8.47486H44.2374L43.9946 9.62852H38.8919Z" fill="url(#paint4_linear_5427_9890)"/>
<path id="Vector_6" d="M53.4854 9.6283H50.4074L49.5254 3.84216L48.2935 9.6283H45.2119L47.1687 0.384766H50.2467L51.1323 6.19948L52.3642 0.384766H55.4565L53.4854 9.6283Z" fill="url(#paint5_linear_5427_9890)"/>
<path id="Vector_7" d="M64.1192 1.55271H61.8161L60.0985 9.6283H57.0169L58.7309 1.53842H56.4277L56.6705 0.384766H64.3549L64.1192 1.55271Z" fill="url(#paint6_linear_5427_9890)"/>
</g>
<g id="Group 6">
<path id="Vector_8" d="M34.9941 16.3024C34.9429 16.5697 34.7987 16.8101 34.587 16.981C34.3867 17.1482 34.1337 17.2393 33.8728 17.2382H29.5879L30.8519 11.2485H35.1262C35.2437 11.2391 35.3619 11.2575 35.471 11.3022C35.5802 11.3469 35.6773 11.4165 35.7546 11.5056C35.824 11.6033 35.8698 11.7157 35.8884 11.8341C35.9069 11.9525 35.8978 12.0736 35.8618 12.1878L34.9941 16.3024ZM32.6623 11.9949L31.7054 16.4917H32.9551L33.9121 11.9949H32.6623Z" fill="url(#paint7_linear_5427_9890)"/>
<path id="Vector_9" d="M37.5293 17.2378H35.5332L36.8008 11.248H38.8005L37.5293 17.2378Z" fill="url(#paint8_linear_5427_9890)"/>
<path id="Vector_10" d="M44.975 17.2378H42.9789L42.8504 14.9376L41.7399 17.2378H39.7438L39.3867 11.248H41.3828L41.6577 15.7448L42.7754 13.4375L42.6468 11.248H44.6429L44.9036 15.7448L47.0711 11.248H47.8816L44.975 17.2378Z" fill="url(#paint9_linear_5427_9890)"/>
<path id="Vector_11" d="M52.4304 17.2383H50.4343L50.8342 15.3632H49.5845L49.1845 17.2383H47.1885L48.2597 12.1879C48.3135 11.9207 48.4572 11.6799 48.6668 11.5057C48.8671 11.3385 49.12 11.2474 49.3809 11.2486H52.7482C52.8658 11.239 52.984 11.2573 53.0932 11.3019C53.2024 11.3466 53.2995 11.4165 53.3767 11.5057C53.4459 11.6035 53.4918 11.7158 53.511 11.834C53.5302 11.9523 53.5221 12.0733 53.4873 12.1879L52.4304 17.2383ZM50.2879 11.9951L49.738 14.6274H50.9878L51.5448 12.0058L50.2879 11.9951Z" fill="url(#paint10_linear_5427_9890)"/>
<path id="Vector_12" d="M58.5401 17.2378H56.544L55.9691 13.4804L55.1728 17.2378H53.1768L54.4444 11.248H56.4405L57.0118 15.0162L57.8116 11.248H59.8077L58.5401 17.2378Z" fill="url(#paint11_linear_5427_9890)"/>
</g>
</g>
<defs>
<linearGradient id="paint0_linear_5427_9890" x1="-29.1103" y1="-4.2727" x2="67.6256" y2="21.9026" gradientUnits="userSpaceOnUse">
<stop stop-color="#C83B62"/>
<stop offset="1" stop-color="#7F35CD"/>
</linearGradient>
<linearGradient id="paint1_linear_5427_9890" x1="-28.4069" y1="-6.8622" x2="68.3255" y2="19.3131" gradientUnits="userSpaceOnUse">
<stop stop-color="#C83B62"/>
<stop offset="1" stop-color="#7F35CD"/>
</linearGradient>
<linearGradient id="paint2_linear_5427_9890" x1="-27.8249" y1="-9.02693" x2="68.9111" y2="17.1484" gradientUnits="userSpaceOnUse">
<stop stop-color="#C83B62"/>
<stop offset="1" stop-color="#7F35CD"/>
</linearGradient>
<linearGradient id="paint3_linear_5427_9890" x1="-27.2568" y1="-11.1198" x2="69.4792" y2="15.0554" gradientUnits="userSpaceOnUse">
<stop stop-color="#C83B62"/>
<stop offset="1" stop-color="#7F35CD"/>
</linearGradient>
<linearGradient id="paint4_linear_5427_9890" x1="-26.5785" y1="-13.6268" x2="70.1539" y2="12.5485" gradientUnits="userSpaceOnUse">
<stop stop-color="#C83B62"/>
<stop offset="1" stop-color="#7F35CD"/>
</linearGradient>
<linearGradient id="paint5_linear_5427_9890" x1="-26.0324" y1="-15.6521" x2="70.7035" y2="10.5232" gradientUnits="userSpaceOnUse">
<stop stop-color="#C83B62"/>
<stop offset="1" stop-color="#7F35CD"/>
</linearGradient>
<linearGradient id="paint6_linear_5427_9890" x1="-25.3219" y1="-18.2666" x2="71.4105" y2="7.90867" gradientUnits="userSpaceOnUse">
<stop stop-color="#C83B62"/>
<stop offset="1" stop-color="#7F35CD"/>
</linearGradient>
<linearGradient id="paint7_linear_5427_9890" x1="-18.15" y1="0.554807" x2="78.586" y2="26.7301" gradientUnits="userSpaceOnUse">
<stop stop-color="#C83B62"/>
<stop offset="1" stop-color="#7F35CD"/>
</linearGradient>
<linearGradient id="paint8_linear_5427_9890" x1="-17.8251" y1="-0.642115" x2="78.9109" y2="25.5296" gradientUnits="userSpaceOnUse">
<stop stop-color="#C83B62"/>
<stop offset="1" stop-color="#7F35CD"/>
</linearGradient>
<linearGradient id="paint9_linear_5427_9890" x1="-17.3709" y1="-2.31724" x2="79.365" y2="23.8581" gradientUnits="userSpaceOnUse">
<stop stop-color="#C83B62"/>
<stop offset="1" stop-color="#7F35CD"/>
</linearGradient>
<linearGradient id="paint10_linear_5427_9890" x1="-16.9465" y1="-3.89539" x2="79.7895" y2="22.2799" gradientUnits="userSpaceOnUse">
<stop stop-color="#C83B62"/>
<stop offset="1" stop-color="#7F35CD"/>
</linearGradient>
<linearGradient id="paint11_linear_5427_9890" x1="-16.5072" y1="-5.51748" x2="80.2288" y2="20.6578" gradientUnits="userSpaceOnUse">
<stop stop-color="#C83B62"/>
<stop offset="1" stop-color="#7F35CD"/>
</linearGradient>
</defs>
</svg>
