<svg width="90" height="91" viewBox="0 0 90 91" fill="none" xmlns="http://www.w3.org/2000/svg">
<path d="M4.46875 8.16406H85.532V62.6703H4.46875V8.16406Z" fill="url(#paint0_linear_4954_30341)"/>
<path d="M83.8758 9.82344V61.018H6.12422V9.82344H83.8758ZM87.1875 6.51172H2.8125V64.3297H87.1875V6.51172Z" fill="url(#paint1_linear_4954_30341)"/>
<path d="M69.5421 56.6441C68.6632 55.048 69.7812 53.4238 71.6937 51.4129C74.7242 48.2207 78.0218 40.8168 74.9562 33.3004C74.9773 33.2582 74.3515 31.9926 74.3726 31.9504L73.114 31.8871C72.7132 31.8309 58.8687 31.8027 45.0101 31.8027C31.1515 31.8027 17.307 31.8309 16.9062 31.8871C16.9062 31.8871 15.0429 33.2582 15.057 33.3004C11.9984 40.8168 15.289 48.2137 18.3195 51.4129C20.225 53.4238 21.3429 55.048 20.471 56.6441C19.6203 58.198 17.089 58.423 17.089 58.423C17.089 58.423 17.6726 60.0121 19.0789 60.8699C20.3796 61.6645 21.9828 61.8473 23.0867 61.8754C23.0867 61.8754 27.4109 67.859 38.7171 67.859H51.3031C62.6093 67.859 66.9335 61.8754 66.9335 61.8754C68.0375 61.8473 69.6406 61.6645 70.9414 60.8699C72.3476 60.0121 72.9312 58.423 72.9312 58.423C72.9312 58.423 70.3929 58.198 69.5421 56.6441Z" fill="#543930"/>
<path d="M44.9922 67.8516V61.2141L65.0805 59.625L66.9086 61.875C66.9086 61.875 62.5844 67.8586 51.2781 67.8586L44.9922 67.8516Z" fill="url(#paint2_radial_4954_30341)"/>
<path d="M66.8656 58.9723C63.8562 54.402 70.5289 52.6934 70.5289 52.6934L70.5359 52.7004C69.3758 54.1418 68.8484 55.4004 69.5305 56.6449C70.3812 58.1988 72.9125 58.4238 72.9125 58.4238C72.9125 58.4238 69.4601 61.4895 66.8656 58.9723Z" fill="url(#paint3_radial_4954_30341)"/>
<path d="M74.9709 33.3C77.9592 40.5773 74.8162 48.0727 71.8701 51.2367C71.4693 51.6727 69.7537 53.3531 69.36 54.6961C69.36 54.6961 62.6521 45.3375 60.6482 39.8391C60.2475 38.7281 59.8748 37.5891 59.8256 36.4078C59.7904 35.5219 59.924 34.4672 60.4373 33.7148C61.0631 32.7938 74.6123 32.5195 74.6123 32.5195C74.6123 32.5266 74.9709 33.3 74.9709 33.3Z" fill="url(#paint4_radial_4954_30341)"/>
<path d="M15.0469 33.3012C12.0656 40.5785 15.2086 48.0738 18.1477 51.2309C18.5555 51.6668 20.2641 53.3473 20.6578 54.6902C20.6578 54.6902 27.3656 45.3316 29.3696 39.8332C29.7774 38.7223 30.143 37.5832 30.1922 36.402C30.2274 35.516 30.0938 34.4613 29.5805 33.709C28.9547 32.7879 28.2235 33.034 27.1617 33.034C25.1367 33.034 16.2703 32.5137 15.5813 32.5137C15.5883 32.5277 15.0469 33.3012 15.0469 33.3012Z" fill="url(#paint5_radial_4954_30341)"/>
<path d="M45.018 67.8516V61.2141L24.9297 59.625L23.1016 61.875C23.1016 61.875 27.4258 67.8586 38.732 67.8586L45.018 67.8516Z" fill="url(#paint6_radial_4954_30341)"/>
<path d="M23.1484 58.9723C26.1578 54.402 19.4852 52.6934 19.4852 52.6934L19.4781 52.7004C20.6383 54.1418 21.1656 55.4004 20.4836 56.6449C19.6328 58.1988 17.1016 58.4238 17.1016 58.4238C17.1016 58.4238 20.5539 61.4895 23.1484 58.9723Z" fill="url(#paint7_radial_4954_30341)"/>
<path d="M80.5078 85.4016C80.5078 74.5242 62.6906 68.8359 45.0984 68.8359H45C27.3234 68.857 9.49219 73.9828 9.49219 85.4016V87.6867H80.5078V85.4016Z" fill="url(#paint8_linear_4954_30341)"/>
<path d="M45.0016 65.4199H38.6172V72.4371L44.9875 74.1105L51.3859 72.4371V65.4199H45.0016Z" fill="#E59600"/>
<path d="M8.4375 85.4031V87.6883H31.5633L32.4984 68.6758C19.35 70.6164 8.4375 75.8406 8.4375 85.4031Z" fill="url(#paint9_linear_4954_30341)"/>
<path d="M57.5 68.6758L58.4281 87.6883H81.5609V85.4031C81.5609 75.8406 70.6484 70.6164 57.5 68.6758Z" fill="url(#paint10_linear_4954_30341)"/>
<path d="M37.9875 65.2715L45.0117 74.2855L33.593 78.9543L31.8984 68.7309L37.9875 65.2715Z" fill="#66C0E8"/>
<path d="M52.0086 65.2715L44.9844 74.2855L56.4031 78.9543L58.0977 68.7309L52.0086 65.2715Z" fill="#66C0E8"/>
<path d="M34.3724 67.297C34.3724 67.297 33.5708 69.2095 33.0083 71.5158C31.8903 76.1002 31.82 82.6252 31.82 82.6252C31.82 82.6252 26.9755 80.9798 25.4638 76.965C23.6778 72.2189 26.6942 69.6103 26.6942 69.6103C26.6942 69.6103 27.327 69.3431 29.9848 67.8806C32.6427 66.4181 34.3724 67.297 34.3724 67.297ZM55.6349 67.297C55.6349 67.297 56.4364 69.2095 56.9989 71.5158C58.1169 76.1002 58.1872 82.6252 58.1872 82.6252C58.1872 82.6252 63.0317 80.9798 64.5434 76.965C66.3294 72.2189 63.313 69.6103 63.313 69.6103C63.313 69.6103 62.6802 69.3431 60.0224 67.8806C57.3645 66.4181 55.6349 67.297 55.6349 67.297Z" fill="#AF5214"/>
<path d="M64.0656 35.959H25.6398C21.4984 35.959 18.1094 39.573 18.1094 43.9816C18.1094 48.3902 21.4984 52.0043 25.6398 52.0043H64.0656C68.207 52.0043 71.5961 48.3902 71.5961 43.9816C71.5961 39.573 68.207 35.959 64.0656 35.959Z" fill="#E59600"/>
<path d="M44.85 8.2832C32.6156 8.2832 21.2812 21.3684 21.2812 40.2051C21.2812 58.9363 32.9602 68.1965 44.85 68.1965C56.7398 68.1965 68.4187 58.9293 68.4187 40.198C68.4187 21.3684 57.0914 8.2832 44.85 8.2832Z" fill="#FFCA28"/>
<path d="M33.732 45.4375C35.6465 45.4375 37.1984 43.832 37.1984 41.8516C37.1984 39.8711 35.6465 38.2656 33.732 38.2656C31.8176 38.2656 30.2656 39.8711 30.2656 41.8516C30.2656 43.832 31.8176 45.4375 33.732 45.4375Z" fill="#404040"/>
<path d="M55.6305 45.4375C57.5449 45.4375 59.0969 43.832 59.0969 41.8516C59.0969 39.8711 57.5449 38.2656 55.6305 38.2656C53.716 38.2656 52.1641 39.8711 52.1641 41.8516C52.1641 43.832 53.716 45.4375 55.6305 45.4375Z" fill="#404040"/>
<path d="M38.9297 35.5305C38.2758 34.6656 36.7711 33.4141 33.8461 33.4141C30.9211 33.4141 29.4094 34.6727 28.7625 35.5305C28.4742 35.9102 28.5445 36.3531 28.7484 36.6203C28.9313 36.8664 29.4797 37.0984 30.0844 36.8945C30.6891 36.6906 31.8703 36.0789 33.8461 36.0648C35.8219 36.0789 37.0031 36.6906 37.6078 36.8945C38.2125 37.0984 38.7609 36.8734 38.9438 36.6203C39.1406 36.3531 39.218 35.9102 38.9297 35.5305ZM60.7195 35.5305C60.0656 34.6656 58.5609 33.4141 55.6359 33.4141C52.7109 33.4141 51.1992 34.6727 50.5524 35.5305C50.2641 35.9102 50.3344 36.3531 50.5383 36.6203C50.7211 36.8664 51.2695 37.0984 51.8742 36.8945C52.4789 36.6906 53.6602 36.0789 55.6359 36.0648C57.6117 36.0789 58.793 36.6906 59.3977 36.8945C60.0024 37.0984 60.5508 36.8734 60.7336 36.6203C60.9375 36.3531 61.0078 35.9102 60.7195 35.5305Z" fill="#6D4C41"/>
<path d="M47.5679 48.3551C47.4905 48.3269 47.4202 48.3059 47.3429 48.2988H42.3648C42.2874 48.3059 42.2101 48.3269 42.1398 48.3551C41.6898 48.5379 41.4437 49.002 41.6546 49.5012C41.8655 50.0004 42.8569 51.3926 44.8538 51.3926C46.8507 51.3926 47.8421 49.9934 48.053 49.5012C48.271 49.002 48.0179 48.5379 47.5679 48.3551Z" fill="#E59600"/>
<path d="M50.8527 54.0358C48.6167 55.3647 41.2691 55.3647 39.0331 54.0358C37.7464 53.2694 36.4316 54.4436 36.966 55.6108C37.4933 56.7569 41.4941 59.4218 44.9605 59.4218C48.4269 59.4218 52.3785 56.7569 52.9058 55.6108C53.4402 54.4436 52.1394 53.2694 50.8527 54.0358Z" fill="#795548"/>
<path d="M65.9738 37.7163C65.9246 36.8796 65.8894 36.7952 64.7855 36.4436C63.9207 36.1694 59.1957 35.7827 55.6379 35.9796C55.3847 35.9936 55.1386 36.0077 54.9066 36.0288C51.6793 36.303 47.8051 37.6038 44.8941 37.6741C43.6566 37.7022 38.559 36.3663 34.9519 36.085C34.7199 36.071 34.4879 36.0499 34.2488 36.0429C30.684 35.86 25.9379 36.2749 25.073 36.5561C23.9691 36.9147 23.934 36.9991 23.8918 37.8358C23.8426 38.6725 23.9832 39.3827 24.6371 39.6007C25.5301 39.896 25.5371 41.0069 26.1347 44.1991C26.6761 47.11 27.9769 49.4093 33.5668 49.81C33.8058 49.8241 34.0308 49.8382 34.2558 49.8382C39.1988 49.9085 40.9004 46.653 41.4629 45.5702C42.5105 43.5593 42.1801 40.7889 44.9504 40.7819C47.7136 40.7749 47.4535 43.496 48.5152 45.4999C49.0847 46.5757 50.7441 49.8452 55.6449 49.7749C55.884 49.7749 56.1301 49.7608 56.3832 49.7397C61.966 49.3038 63.2597 46.9975 63.7801 44.0866C64.3566 40.8874 64.3637 39.7694 65.2496 39.4741C65.8894 39.2632 66.0301 38.553 65.9738 37.7163ZM37.4621 48.4319C36.6043 48.8327 35.4582 49.0366 34.2488 49.0366C31.7246 49.0296 28.9262 48.1436 27.9137 46.3577C26.4793 43.8124 26.1066 38.6655 27.9347 37.5897C28.7363 37.1186 31.4433 36.7952 34.2418 36.9147C37.1457 37.0413 40.148 37.646 41.2308 39.0663C43.0238 41.4077 40.1761 47.1522 37.4621 48.4319ZM62.0011 46.2522C60.9957 48.0522 58.1761 48.9593 55.6379 48.9663C54.4426 48.9733 53.3105 48.7764 52.4668 48.3827C49.7457 47.1171 46.8629 41.3936 48.6347 39.0382C49.7105 37.6038 52.7269 36.985 55.6379 36.8444C58.4293 36.7108 61.1293 37.0202 61.9238 37.4843C63.759 38.553 63.4215 43.6999 62.0011 46.2522Z" fill="#212121" stroke="#212121" stroke-width="0.103125" stroke-miterlimit="10"/>
<path opacity="0.67" d="M71.4844 86.0072L71.8852 84.4603L71.8922 84.4251L73.2492 79.0814L68.3977 77.6892L43.8445 70.6369C43.8094 70.6298 43.7812 70.6298 43.7531 70.6158C42.6552 70.3267 41.4877 70.4791 40.5007 71.0403C39.5138 71.6014 38.7858 72.5268 38.4727 73.6181L34.4297 87.6876H71.0062L71.4844 86.0072Z" fill="url(#paint11_linear_4954_30341)"/>
<path d="M74.3555 79.1665C74.5594 78.4563 74.1516 77.718 73.4414 77.5212L46.2375 69.7165C45.1289 69.3996 43.9398 69.5355 42.9314 70.0944C41.9229 70.6534 41.1774 71.5897 40.8586 72.6977L36.5625 87.6883H71.9156L74.3555 79.1665Z" fill="#424242"/>
<path d="M73.8844 85.0936C74.1305 84.2357 73.6172 83.3357 72.7453 83.0896L43.5516 74.7225C40.3664 73.8084 39.8109 76.3748 38.918 79.4896L36.5625 87.6881H73.1391L73.8844 85.0936Z" fill="url(#paint12_linear_4954_30341)"/>
<path d="M44.4797 69.5742C43.6397 69.6829 42.8498 70.0351 42.2076 70.5873C41.5654 71.1396 41.0989 71.8678 40.8656 72.682L36.5625 87.6867H39.2836L44.4797 69.5742Z" fill="url(#paint13_linear_4954_30341)"/>
<path opacity="0.2" d="M45.2344 71.9156C45.361 71.9156 45.5016 71.9297 45.6493 71.9648L71.8407 79.4883L71.6227 80.2477C63.3329 77.9344 47.5126 73.4836 44.243 72.4008C44.4118 72.1688 44.7422 71.9156 45.2344 71.9156ZM45.2344 69.5742C42.0563 69.5742 40.4672 73.4906 43.0407 74.4539C45.8743 75.5086 73.2258 83.1164 73.2258 83.1164L74.3368 79.2352C74.5547 78.4898 74.2032 77.7305 73.5563 77.5477L46.2469 69.7008C45.8954 69.6164 45.5579 69.5742 45.2344 69.5742Z" fill="#424242"/>
<path d="M72.6852 79.3338L44.7009 71.3041C43.9415 71.0861 43.1118 71.6276 42.8587 72.5065L42.8165 72.6611C42.5634 73.54 42.9782 74.4401 43.7376 74.658L71.722 82.6877C71.722 82.6877 71.4829 82.1041 71.7712 81.0705C72.0595 80.0299 72.6852 79.3338 72.6852 79.3338Z" fill="url(#paint14_linear_4954_30341)"/>
<path d="M73.1739 18.1553C71.4583 15.5607 67.6122 12.0803 64.1598 11.8482C63.6044 8.52949 60.0536 5.71699 56.6153 4.62715C47.313 1.68106 41.2591 4.98574 38.0106 6.75762C37.3356 7.12324 32.9692 9.54903 29.9177 7.81231C28.0052 6.72246 28.0403 3.77637 28.0403 3.77637C28.0403 3.77637 22.0497 6.06152 24.0958 12.4248C22.0356 12.5092 19.3356 13.3811 17.9083 16.2709C16.2067 19.7162 16.8114 22.592 17.3036 23.9701C15.5317 25.4748 13.3028 28.674 14.8286 32.8295C15.9817 35.9584 20.5731 37.3998 20.5731 37.3998C20.2497 43.0318 21.2973 46.4982 21.8528 47.8975C21.9513 48.1436 22.2958 48.1225 22.3591 47.8693C23.0552 45.0779 25.4317 35.3537 25.1927 33.6592C25.1927 33.6592 33.1731 32.0771 40.7809 26.4732C42.3278 25.3342 44.0083 24.3639 45.7942 23.6537C55.3497 19.8498 57.3466 26.3396 57.3466 26.3396C57.3466 26.3396 63.97 25.067 65.9669 34.2639C66.7192 37.7092 67.2255 43.2287 67.6544 47.0889C67.6825 47.3631 68.0552 47.4193 68.1606 47.1662C68.8286 45.6334 70.1645 42.5959 70.4809 39.4951C70.5934 38.4053 73.5325 36.9639 74.7981 32.2811C76.4927 26.0373 74.4184 20.0326 73.1739 18.1553Z" fill="#543930"/>
<path d="M70.4648 39.5238C70.5773 38.434 73.5164 36.9926 74.782 32.3098C74.9156 31.8105 75.0281 31.3043 75.1336 30.798C76.1602 25.1098 74.318 19.8855 73.1719 18.1559C71.5828 15.7582 68.1797 12.6082 64.9523 11.9613C64.6711 11.9262 64.3969 11.891 64.1367 11.877C64.1367 11.877 64.3688 13.3887 63.757 14.591C62.9695 16.152 61.3594 16.5246 61.3594 16.5246C69.7758 24.948 69.1781 31.9934 70.4648 39.5238Z" fill="url(#paint15_radial_4954_30341)"/>
<path d="M40.044 5.69648C39.2705 6.06914 38.5955 6.4418 38.0049 6.7582C37.3299 7.12383 32.9635 9.54961 29.9119 7.81289C28.0346 6.74414 28.0346 3.88945 28.0346 3.79102C27.1697 4.89492 24.5541 12.777 32.2041 13.3043C35.5018 13.5293 37.5338 10.6535 38.7432 8.2207C39.1791 7.33477 39.8612 6.04102 40.044 5.69648Z" fill="url(#paint16_radial_4954_30341)"/>
<path d="M55.6596 4.34671C60.8065 5.7389 63.3167 8.36155 64.1534 11.8561C64.3995 12.8826 64.6948 22.4592 46.4135 11.5748C39.6143 7.52483 41.4706 4.99358 42.2651 4.7053C45.3729 3.5803 49.894 2.78577 55.6596 4.34671Z" fill="url(#paint17_radial_4954_30341)"/>
<path d="M28.0143 3.79141C28.0073 3.79844 27.9932 3.79844 27.9721 3.8125H27.9651C27.3112 4.08672 22.1713 6.47031 24.0908 12.4258L29.5612 13.3047C24.7166 8.39687 28.0354 3.77734 28.0354 3.77734C28.0354 3.77734 28.0213 3.78437 28.0143 3.79141Z" fill="url(#paint18_radial_4954_30341)"/>
<path d="M27.4703 12.9672L24.0882 12.4258C23.9546 12.4258 23.5046 12.468 23.2585 12.5031C21.3531 12.7703 19.1101 13.7547 17.8937 16.2719C16.5859 18.9859 16.621 21.3133 16.9796 22.8672C17.0851 23.3875 17.296 23.9781 17.296 23.9781C17.296 23.9781 18.9695 22.3891 22.9562 22.2836L27.4703 12.9672Z" fill="url(#paint19_radial_4954_30341)"/>
<path d="M17.1327 24.1113C15.4663 25.5879 13.2234 28.8855 14.8757 32.9777C16.1202 36.0645 20.564 37.4004 20.564 37.4004C20.564 37.4145 21.4499 37.6816 21.907 37.6816L22.9476 22.2832C20.8171 22.2832 18.771 22.923 17.4491 23.8441C17.4702 23.8652 17.1257 24.0902 17.1327 24.1113Z" fill="url(#paint20_radial_4954_30341)"/>
<defs>
<linearGradient id="paint0_linear_4954_30341" x1="44.9962" y1="8.51211" x2="44.9962" y2="62.7188" gradientUnits="userSpaceOnUse">
<stop stop-color="#26A69A"/>
<stop offset="1" stop-color="#00796B"/>
</linearGradient>
<linearGradient id="paint1_linear_4954_30341" x1="44.9993" y1="6.5082" x2="44.9993" y2="64.3269" gradientUnits="userSpaceOnUse">
<stop stop-color="#8D6E63"/>
<stop offset="0.779" stop-color="#795548"/>
</linearGradient>
<radialGradient id="paint2_radial_4954_30341" cx="0" cy="0" r="1" gradientUnits="userSpaceOnUse" gradientTransform="translate(55.2529 58.2613) scale(16.4665 8.08834)">
<stop offset="0.728" stop-color="#6D4C41" stop-opacity="0"/>
<stop offset="1" stop-color="#6D4C41"/>
</radialGradient>
<radialGradient id="paint3_radial_4954_30341" cx="0" cy="0" r="1" gradientUnits="userSpaceOnUse" gradientTransform="translate(71.4717 55.812) rotate(154.924) scale(4.86608 3.60994)">
<stop offset="0.663" stop-color="#6D4C41"/>
<stop offset="1" stop-color="#6D4C41" stop-opacity="0"/>
</radialGradient>
<radialGradient id="paint4_radial_4954_30341" cx="0" cy="0" r="1" gradientUnits="userSpaceOnUse" gradientTransform="translate(58.8656 42.0479) rotate(-94.2783) scale(21.374 17.8139)">
<stop offset="0.725" stop-color="#6D4C41" stop-opacity="0"/>
<stop offset="1" stop-color="#6D4C41"/>
</radialGradient>
<radialGradient id="paint5_radial_4954_30341" cx="0" cy="0" r="1" gradientUnits="userSpaceOnUse" gradientTransform="translate(31.1544 42.0487) rotate(-85.7217) scale(21.374 17.8139)">
<stop offset="0.725" stop-color="#6D4C41" stop-opacity="0"/>
<stop offset="1" stop-color="#6D4C41"/>
</radialGradient>
<radialGradient id="paint6_radial_4954_30341" cx="0" cy="0" r="1" gradientUnits="userSpaceOnUse" gradientTransform="translate(34.7587 58.2613) rotate(180) scale(16.4665 8.08834)">
<stop offset="0.728" stop-color="#6D4C41" stop-opacity="0"/>
<stop offset="1" stop-color="#6D4C41"/>
</radialGradient>
<radialGradient id="paint7_radial_4954_30341" cx="0" cy="0" r="1" gradientUnits="userSpaceOnUse" gradientTransform="translate(18.545 55.8125) rotate(25.0761) scale(4.86608 3.60994)">
<stop offset="0.663" stop-color="#6D4C41"/>
<stop offset="1" stop-color="#6D4C41" stop-opacity="0"/>
</radialGradient>
<linearGradient id="paint8_linear_4954_30341" x1="45" y1="72.2827" x2="45" y2="82.8084" gradientUnits="userSpaceOnUse">
<stop stop-color="#E1F5FE"/>
<stop offset="1" stop-color="#81D4FA"/>
</linearGradient>
<linearGradient id="paint9_linear_4954_30341" x1="20.4701" y1="70.0005" x2="20.4701" y2="87.0062" gradientUnits="userSpaceOnUse">
<stop stop-color="#FFA000"/>
<stop offset="0.341" stop-color="#FF9300"/>
<stop offset="0.972" stop-color="#FF7100"/>
<stop offset="1" stop-color="#FF6F00"/>
</linearGradient>
<linearGradient id="paint10_linear_4954_30341" x1="69.5291" y1="69.8043" x2="69.5291" y2="87.1209" gradientUnits="userSpaceOnUse">
<stop stop-color="#FFA000"/>
<stop offset="0.341" stop-color="#FF9300"/>
<stop offset="0.972" stop-color="#FF7100"/>
<stop offset="1" stop-color="#FF6F00"/>
</linearGradient>
<linearGradient id="paint11_linear_4954_30341" x1="55.9446" y1="74.5301" x2="54.1003" y2="82.2961" gradientUnits="userSpaceOnUse">
<stop offset="0.002" stop-color="#212121" stop-opacity="0.2"/>
<stop offset="1" stop-color="#212121" stop-opacity="0.6"/>
</linearGradient>
<linearGradient id="paint12_linear_4954_30341" x1="57.5437" y1="78.4786" x2="56.1579" y2="83.1276" gradientUnits="userSpaceOnUse">
<stop stop-color="#EF5350"/>
<stop offset="1" stop-color="#E53935"/>
</linearGradient>
<linearGradient id="paint13_linear_4954_30341" x1="41.066" y1="77.0604" x2="42.3759" y2="72.9429" gradientUnits="userSpaceOnUse">
<stop stop-color="#212121"/>
<stop offset="1" stop-color="#424242"/>
</linearGradient>
<linearGradient id="paint14_linear_4954_30341" x1="42.8402" y1="72.582" x2="72.2019" y2="81.008" gradientUnits="userSpaceOnUse">
<stop offset="0.01" stop-color="#BDBDBD"/>
<stop offset="0.987" stop-color="#F8F8F7"/>
</linearGradient>
<radialGradient id="paint15_radial_4954_30341" cx="0" cy="0" r="1" gradientUnits="userSpaceOnUse" gradientTransform="translate(57.6658 30.7709) rotate(72.0851) scale(25.0541 18.5895)">
<stop offset="0.699" stop-color="#6D4C41" stop-opacity="0"/>
<stop offset="1" stop-color="#6D4C41"/>
</radialGradient>
<radialGradient id="paint16_radial_4954_30341" cx="0" cy="0" r="1" gradientUnits="userSpaceOnUse" gradientTransform="translate(33.2455 3.45459) rotate(28.2026) scale(6.56943 7.78943)">
<stop offset="0.58" stop-color="#6D4C41"/>
<stop offset="1" stop-color="#6D4C41" stop-opacity="0"/>
</radialGradient>
<radialGradient id="paint17_radial_4954_30341" cx="0" cy="0" r="1" gradientUnits="userSpaceOnUse" gradientTransform="translate(47.9265 15.3853) rotate(-157.19) scale(20.545 11.5464)">
<stop offset="0.699" stop-color="#6D4C41" stop-opacity="0"/>
<stop offset="1" stop-color="#6D4C41"/>
</radialGradient>
<radialGradient id="paint18_radial_4954_30341" cx="0" cy="0" r="1" gradientUnits="userSpaceOnUse" gradientTransform="translate(30.6081 9.44795) scale(6.0293 7.37564)">
<stop offset="0.702" stop-color="#6D4C41" stop-opacity="0"/>
<stop offset="1" stop-color="#6D4C41"/>
</radialGradient>
<radialGradient id="paint19_radial_4954_30341" cx="0" cy="0" r="1" gradientUnits="userSpaceOnUse" gradientTransform="translate(29.7749 20.0908) rotate(-164.942) scale(11.3088 10.583)">
<stop offset="0.66" stop-color="#6D4C41" stop-opacity="0"/>
<stop offset="1" stop-color="#6D4C41"/>
</radialGradient>
<radialGradient id="paint20_radial_4954_30341" cx="0" cy="0" r="1" gradientUnits="userSpaceOnUse" gradientTransform="translate(27.0934 31.0096) rotate(7.83355) scale(11.8733 16.684)">
<stop offset="0.598" stop-color="#6D4C41" stop-opacity="0"/>
<stop offset="1" stop-color="#6D4C41"/>
</radialGradient>
</defs>
</svg>
