<svg xmlns="http://www.w3.org/2000/svg" width="17" height="16" viewBox="0 0 17 16" fill="none">
  <g clip-path="url(#clip0_2_30608)">
    <path d="M11.834 2.22529C12.8395 2.80586 13.6759 3.63898 14.2605 4.64216C14.8451 5.64534 15.1576 6.78381 15.1669 7.94485C15.1763 9.1059 14.8823 10.2493 14.314 11.2618C13.7457 12.2743 12.9228 13.1208 11.9268 13.7175C10.9308 14.3142 9.79623 14.6405 8.63538 14.664C7.47454 14.6875 6.32768 14.4074 5.30835 13.8515C4.28902 13.2955 3.43256 12.483 2.82376 11.4943C2.21496 10.5056 1.87492 9.3751 1.83732 8.21463L1.83398 7.99863L1.83732 7.78263C1.87465 6.63129 2.20968 5.50927 2.80974 4.52595C3.40981 3.54264 4.25442 2.73159 5.26125 2.17188C6.26807 1.61217 7.40275 1.32289 8.55465 1.33225C9.70656 1.34161 10.8364 1.64929 11.834 2.22529ZM7.50798 6.09196C7.3683 6.00881 7.20306 5.97956 7.04332 6.00971C6.88359 6.03986 6.74038 6.12734 6.64062 6.25568C6.54086 6.38402 6.49143 6.54439 6.50162 6.70663C6.51182 6.86886 6.58094 7.02178 6.69598 7.13663L7.55732 7.99863L6.69598 8.86063L6.64065 8.92329C6.53704 9.05729 6.48832 9.2257 6.50438 9.39431C6.52045 9.56293 6.60009 9.7191 6.72713 9.83113C6.85418 9.94315 7.0191 10.0026 7.1884 9.99745C7.35769 9.99228 7.51868 9.92286 7.63865 9.80329L8.50065 8.94196L9.36265 9.80329L9.42532 9.85863C9.55931 9.96223 9.72772 10.011 9.89633 9.99489C10.0649 9.97883 10.2211 9.89919 10.3332 9.77215C10.4452 9.6451 10.5046 9.48018 10.4995 9.31088C10.4943 9.14158 10.4249 8.9806 10.3053 8.86063L9.44398 7.99863L10.3053 7.13663L10.3607 7.07396C10.4643 6.93997 10.513 6.77156 10.4969 6.60294C10.4809 6.43433 10.4012 6.27815 10.2742 6.16613C10.1471 6.0541 9.98221 5.99464 9.81291 5.99981C9.64361 6.00498 9.48262 6.07439 9.36265 6.19396L8.50065 7.05529L7.63865 6.19396L7.57598 6.13863L7.50798 6.09196Z" fill="#E33131"/>
  </g>
  <defs>
    <clipPath id="clip0_2_30608">
      <rect width="16" height="16" fill="white" transform="translate(0.5)"/>
    </clipPath>
  </defs>
</svg>