<svg xmlns="http://www.w3.org/2000/svg" width="20" height="20" viewBox="0 0 20 20" fill="none">
  <g clip-path="url(#clip0_2_34115)">
    <path d="M3.33325 5.83464C3.33325 5.39261 3.50885 4.96868 3.82141 4.65612C4.13397 4.34356 4.55789 4.16797 4.99992 4.16797H14.9999C15.4419 4.16797 15.8659 4.34356 16.1784 4.65612C16.491 4.96868 16.6666 5.39261 16.6666 5.83464V15.8346C16.6666 16.2767 16.491 16.7006 16.1784 17.0131C15.8659 17.3257 15.4419 17.5013 14.9999 17.5013H4.99992C4.55789 17.5013 4.13397 17.3257 3.82141 17.0131C3.50885 16.7006 3.33325 16.2767 3.33325 15.8346V5.83464Z" stroke="#7F7F7F" stroke-linecap="round" stroke-linejoin="round"/>
    <path d="M13.3333 2.5V5.83333" stroke="#7F7F7F" stroke-linecap="round" stroke-linejoin="round"/>
    <path d="M6.66675 2.5V5.83333" stroke="#7F7F7F" stroke-linecap="round" stroke-linejoin="round"/>
    <path d="M3.33325 9.16797H16.6666" stroke="#7F7F7F" stroke-linecap="round" stroke-linejoin="round"/>
    <path d="M5.83325 11.668H5.84409" stroke="#7F7F7F" stroke-linecap="round" stroke-linejoin="round"/>
    <path d="M8.34155 11.668H8.34655" stroke="#7F7F7F" stroke-linecap="round" stroke-linejoin="round"/>
    <path d="M10.8416 11.668H10.8466" stroke="#7F7F7F" stroke-linecap="round" stroke-linejoin="round"/>
    <path d="M13.3459 11.668H13.3509" stroke="#7F7F7F" stroke-linecap="round" stroke-linejoin="round"/>
    <path d="M10.8459 14.168H10.8509" stroke="#7F7F7F" stroke-linecap="round" stroke-linejoin="round"/>
    <path d="M5.84155 14.168H5.84655" stroke="#7F7F7F" stroke-linecap="round" stroke-linejoin="round"/>
    <path d="M8.34155 14.168H8.34655" stroke="#7F7F7F" stroke-linecap="round" stroke-linejoin="round"/>
  </g>
  <defs>
    <clipPath id="clip0_2_34115">
      <rect width="20" height="20" fill="white"/>
    </clipPath>
  </defs>
</svg>