<svg xmlns="http://www.w3.org/2000/svg" width="24" height="25" viewBox="0 0 24 25" fill="none">
  <g clip-path="url(#clip0_2_30498)">
    <path d="M18.333 2.5C20.293 2.5 21.893 4.037 21.995 5.972L22 6.167V18.833C22 20.793 20.463 22.393 18.528 22.495L18.333 22.5H5.667C4.72818 22.5 3.82509 22.14 3.1438 21.4941C2.46252 20.8481 2.05492 19.9655 2.005 19.028L2 18.833V6.167C2 4.207 3.537 2.607 5.472 2.505L5.667 2.5H18.333ZM15.707 9.793C15.5195 9.60553 15.2652 9.50021 15 9.50021C14.7348 9.50021 14.4805 9.60553 14.293 9.793L11 13.085L9.707 11.793L9.613 11.71C9.41201 11.5546 9.1594 11.4815 8.90647 11.5056C8.65355 11.5297 8.41928 11.6492 8.25125 11.8397C8.08321 12.0303 7.99402 12.2777 8.00177 12.5316C8.00953 12.7856 8.11365 13.027 8.293 13.207L10.293 15.207L10.387 15.29C10.5794 15.4393 10.8197 15.5132 11.0627 15.4979C11.3057 15.4826 11.5348 15.3792 11.707 15.207L15.707 11.207L15.79 11.113C15.9393 10.9206 16.0132 10.6803 15.9979 10.4373C15.9826 10.1943 15.8792 9.96519 15.707 9.793Z" fill="#0D9755"/>
  </g>
  <defs>
    <clipPath id="clip0_2_30498">
      <rect width="24" height="24" fill="white" transform="translate(0 0.5)"/>
    </clipPath>
  </defs>
</svg>