<svg xmlns="http://www.w3.org/2000/svg" width="24" height="25" viewBox="0 0 24 25" fill="none">
  <g clip-path="url(#clip0_2_30505)">
    <path d="M19 2.5H5C4.20435 2.5 3.44129 2.81607 2.87868 3.37868C2.31607 3.94129 2 4.70435 2 5.5V19.5C2 20.2956 2.31607 21.0587 2.87868 21.6213C3.44129 22.1839 4.20435 22.5 5 22.5H19C19.7956 22.5 20.5587 22.1839 21.1213 21.6213C21.6839 21.0587 22 20.2956 22 19.5V5.5C22 4.70435 21.6839 3.94129 21.1213 3.37868C20.5587 2.81607 19.7956 2.5 19 2.5ZM9.613 8.71L9.707 8.793L12 11.085L14.293 8.793C14.473 8.61365 14.7144 8.50953 14.9684 8.50177C15.2223 8.49402 15.4697 8.58321 15.6603 8.75125C15.8508 8.91928 15.9703 9.15355 15.9944 9.40647C16.0185 9.6594 15.9454 9.91201 15.79 10.113L15.707 10.207L13.415 12.5L15.707 14.793C15.8863 14.973 15.9905 15.2144 15.9982 15.4684C16.006 15.7223 15.9168 15.9697 15.7488 16.1603C15.5807 16.3508 15.3464 16.4703 15.0935 16.4944C14.8406 16.5185 14.588 16.4454 14.387 16.29L14.293 16.207L12 13.915L9.707 16.207C9.52704 16.3863 9.28557 16.4905 9.03162 16.4982C8.77767 16.506 8.53029 16.4168 8.33972 16.2488C8.14916 16.0807 8.02969 15.8464 8.0056 15.5935C7.98151 15.3406 8.05459 15.088 8.21 14.887L8.293 14.793L10.585 12.5L8.293 10.207C8.11365 10.027 8.00953 9.78557 8.00177 9.53162C7.99402 9.27767 8.08321 9.03029 8.25125 8.83972C8.41928 8.64916 8.65355 8.52969 8.90647 8.5056C9.1594 8.48151 9.41201 8.55459 9.613 8.71Z" fill="#E33131"/>
  </g>
  <defs>
    <clipPath id="clip0_2_30505">
      <rect width="24" height="24" fill="white" transform="translate(0 0.5)"/>
    </clipPath>
  </defs>
</svg>