<?xml version="1.0" encoding="UTF-8" standalone="no" ?>
<!DOCTYPE svg PUBLIC "-//W3C//DTD SVG 1.1//EN" "http://www.w3.org/Graphics/SVG/1.1/DTD/svg11.dtd">
<svg xmlns="http://www.w3.org/2000/svg" xmlns:xlink="http://www.w3.org/1999/xlink" version="1.1" width="1080" height="1080" viewBox="0 0 1080 1080" xml:space="preserve">
<desc>Created with Fabric.js 5.2.4</desc>
<defs>
</defs>
<rect x="0" y="0" width="100%" height="100%" fill="transparent"></rect>
<g transform="matrix(1 0 0 1 540 540)" id="2159dcf2-bf9b-4da5-9b02-a1d96b18e568"  >
<rect style="stroke: none; stroke-width: 1; stroke-dasharray: none; stroke-linecap: butt; stroke-dashoffset: 0; stroke-linejoin: miter; stroke-miterlimit: 4; fill: rgb(255,255,255); fill-rule: nonzero; opacity: 1; visibility: hidden;" vector-effect="non-scaling-stroke"  x="-540" y="-540" rx="0" ry="0" width="1080" height="1080" />
</g>
<g transform="matrix(1 0 0 1 540 540)" id="e8a9bf60-b088-409d-976d-45b0cac2b8b5"  >
</g>
<g transform="matrix(4.09 0 0 4.09 540 540)"  >
<g style="" vector-effect="non-scaling-stroke"   >
		<g transform="matrix(2.81 0 0 2.81 0 -76.83)"  >
<path style="stroke: none; stroke-width: 1; stroke-dasharray: none; stroke-linecap: butt; stroke-dashoffset: 0; stroke-linejoin: miter; stroke-miterlimit: 10; fill: rgb(77,77,77); fill-rule: nonzero; opacity: 1;" vector-effect="non-scaling-stroke"  transform=" translate(-45, -17.66)" d="M 85.187 28.793 L 4.813 28.793 C 3.7089999999999996 28.793 2.8129999999999997 27.897 2.8129999999999997 26.793 L 2.8129999999999997 16.255 C 2.8129999999999997 10.887999999999998 7.178999999999999 6.5219999999999985 12.546 6.5219999999999985 L 77.45400000000001 6.5219999999999985 C 82.82000000000001 6.5219999999999985 87.186 10.887999999999998 87.186 16.255 L 87.186 26.793999999999997 C 87.187 27.898 86.291 28.793 85.187 28.793 z M 6.813 24.793 L 83.187 24.793 L 83.187 16.253999999999998 C 83.187 13.092999999999998 80.616 10.520999999999997 77.455 10.520999999999997 L 12.546 10.520999999999997 C 9.384 10.520999999999997 6.813 13.092999999999996 6.813 16.253999999999998 L 6.813 24.793 z" stroke-linecap="round" />
</g>
		<g transform="matrix(2.81 0 0 2.81 0 34.83)"  >
<path style="stroke: none; stroke-width: 1; stroke-dasharray: none; stroke-linecap: butt; stroke-dashoffset: 0; stroke-linejoin: miter; stroke-miterlimit: 10; fill: rgb(77,77,77); fill-rule: nonzero; opacity: 1;" vector-effect="non-scaling-stroke"  transform=" translate(-45, -57.4)" d="M 43.13 90 L 12.546 90 C 7.178999999999999 90 2.812999999999999 85.634 2.812999999999999 80.267 L 2.812999999999999 26.793 C 2.812999999999999 25.689 3.7089999999999987 24.793 4.812999999999999 24.793 L 85.187 24.793 C 86.291 24.793 87.187 25.689 87.187 26.793 L 87.187 45.943 C 87.187 47.047 86.291 47.943 85.187 47.943 C 84.083 47.943 83.187 47.047 83.187 45.943 L 83.187 28.793 L 6.813 28.793 L 6.813 80.26599999999999 C 6.813 83.42699999999999 9.385 85.999 12.546 85.999 L 43.13 85.999 C 44.234 85.999 45.13 86.895 45.13 87.999 C 45.13 89.103 44.235 90 43.13 90 z" stroke-linecap="round" />
</g>
		<g transform="matrix(2.81 0 0 2.81 -67.85 -102.5)"  >
<path style="stroke: none; stroke-width: 1; stroke-dasharray: none; stroke-linecap: butt; stroke-dashoffset: 0; stroke-linejoin: miter; stroke-miterlimit: 10; fill: rgb(77,77,77); fill-rule: nonzero; opacity: 1;" vector-effect="non-scaling-stroke"  transform=" translate(-20.86, -8.52)" d="M 20.855 17.045 C 19.751 17.045 18.855 16.149 18.855 15.045000000000002 L 18.855 2 C 18.855 0.8959999999999999 19.751 0 20.855 0 C 21.959 0 22.855 0.896 22.855 2 L 22.855 15.045 C 22.855 16.149 21.96 17.045 20.855 17.045 z" stroke-linecap="round" />
</g>
		<g transform="matrix(2.81 0 0 2.81 67.85 -102.5)"  >
<path style="stroke: none; stroke-width: 1; stroke-dasharray: none; stroke-linecap: butt; stroke-dashoffset: 0; stroke-linejoin: miter; stroke-miterlimit: 10; fill: rgb(77,77,77); fill-rule: nonzero; opacity: 1;" vector-effect="non-scaling-stroke"  transform=" translate(-69.14, -8.52)" d="M 69.145 17.045 C 68.041 17.045 67.145 16.149 67.145 15.045000000000002 L 67.145 2 C 67.145 0.8959999999999999 68.041 0 69.145 0 C 70.249 0 71.145 0.896 71.145 2 L 71.145 15.045 C 71.145 16.149 70.249 17.045 69.145 17.045 z" stroke-linecap="round" />
</g>
		<g transform="matrix(2.81 0 0 2.81 0 -102.5)"  >
<path style="stroke: none; stroke-width: 1; stroke-dasharray: none; stroke-linecap: butt; stroke-dashoffset: 0; stroke-linejoin: miter; stroke-miterlimit: 10; fill: rgb(77,77,77); fill-rule: nonzero; opacity: 1;" vector-effect="non-scaling-stroke"  transform=" translate(-45, -8.52)" d="M 45 17.045 C 43.896 17.045 43 16.149 43 15.045000000000002 L 43 2 C 43 0.8959999999999999 43.896 0 45 0 C 46.104 0 47 0.896 47 2 L 47 15.045 C 47 16.149 46.104 17.045 45 17.045 z" stroke-linecap="round" />
</g>
		<g transform="matrix(2.81 0 0 2.81 -70.1 -14.1)"  >
<path style="stroke: none; stroke-width: 1; stroke-dasharray: none; stroke-linecap: butt; stroke-dashoffset: 0; stroke-linejoin: miter; stroke-miterlimit: 10; fill: rgb(77,77,77); fill-rule: nonzero; opacity: 1;" vector-effect="non-scaling-stroke"  transform=" translate(-20.05, -39.98)" d="M 20.814 41.984 L 19.295 41.984 C 18.610000000000003 41.984 18.054000000000002 41.429 18.054000000000002 40.743 L 18.054000000000002 39.224000000000004 C 18.054000000000002 38.539 18.609 37.983000000000004 19.295 37.983000000000004 L 20.814 37.983000000000004 C 21.499 37.983000000000004 22.055 38.538000000000004 22.055 39.224000000000004 L 22.055 40.743 C 22.055 41.429 21.5 41.984 20.814 41.984 z" stroke-linecap="round" />
</g>
		<g transform="matrix(2.81 0 0 2.81 -23.37 -14.1)"  >
<path style="stroke: none; stroke-width: 1; stroke-dasharray: none; stroke-linecap: butt; stroke-dashoffset: 0; stroke-linejoin: miter; stroke-miterlimit: 10; fill: rgb(77,77,77); fill-rule: nonzero; opacity: 1;" vector-effect="non-scaling-stroke"  transform=" translate(-36.68, -39.98)" d="M 37.444 41.984 L 35.925000000000004 41.984 C 35.24 41.984 34.684000000000005 41.429 34.684000000000005 40.743 L 34.684000000000005 39.224000000000004 C 34.684000000000005 38.539 35.239000000000004 37.983000000000004 35.925000000000004 37.983000000000004 L 37.444 37.983000000000004 C 38.129000000000005 37.983000000000004 38.685 38.538000000000004 38.685 39.224000000000004 L 38.685 40.743 C 38.685 41.429 38.13 41.984 37.444 41.984 z" stroke-linecap="round" />
</g>
		<g transform="matrix(2.81 0 0 2.81 23.36 -14.1)"  >
<path style="stroke: none; stroke-width: 1; stroke-dasharray: none; stroke-linecap: butt; stroke-dashoffset: 0; stroke-linejoin: miter; stroke-miterlimit: 10; fill: rgb(77,77,77); fill-rule: nonzero; opacity: 1;" vector-effect="non-scaling-stroke"  transform=" translate(-53.31, -39.98)" d="M 54.074 41.984 L 52.555 41.984 C 51.87 41.984 51.314 41.429 51.314 40.743 L 51.314 39.224000000000004 C 51.314 38.539 51.869 37.983000000000004 52.555 37.983000000000004 L 54.074 37.983000000000004 C 54.759 37.983000000000004 55.315 38.538000000000004 55.315 39.224000000000004 L 55.315 40.743 C 55.315 41.429 54.76 41.984 54.074 41.984 z" stroke-linecap="round" />
</g>
		<g transform="matrix(2.81 0 0 2.81 70.1 -14.1)"  >
<path style="stroke: none; stroke-width: 1; stroke-dasharray: none; stroke-linecap: butt; stroke-dashoffset: 0; stroke-linejoin: miter; stroke-miterlimit: 10; fill: rgb(77,77,77); fill-rule: nonzero; opacity: 1;" vector-effect="non-scaling-stroke"  transform=" translate(-69.95, -39.98)" d="M 70.705 41.984 L 69.18599999999999 41.984 C 68.50099999999999 41.984 67.945 41.429 67.945 40.743 L 67.945 39.224000000000004 C 67.945 38.539 68.5 37.983000000000004 69.18599999999999 37.983000000000004 L 70.705 37.983000000000004 C 71.39 37.983000000000004 71.946 38.538000000000004 71.946 39.224000000000004 L 71.946 40.743 C 71.945 41.429 71.39 41.984 70.705 41.984 z" stroke-linecap="round" />
</g>
		<g transform="matrix(2.81 0 0 2.81 -70.1 32.63)"  >
<path style="stroke: none; stroke-width: 1; stroke-dasharray: none; stroke-linecap: butt; stroke-dashoffset: 0; stroke-linejoin: miter; stroke-miterlimit: 10; fill: rgb(77,77,77); fill-rule: nonzero; opacity: 1;" vector-effect="non-scaling-stroke"  transform=" translate(-20.05, -56.61)" d="M 20.814 58.614 L 19.295 58.614 C 18.610000000000003 58.614 18.054000000000002 58.059 18.054000000000002 57.373 L 18.054000000000002 55.854 C 18.054000000000002 55.169 18.609 54.613 19.295 54.613 L 20.814 54.613 C 21.499 54.613 22.055 55.168 22.055 55.854 L 22.055 57.373 C 22.055 58.059 21.5 58.614 20.814 58.614 z" stroke-linecap="round" />
</g>
		<g transform="matrix(2.81 0 0 2.81 -23.37 32.63)"  >
<path style="stroke: none; stroke-width: 1; stroke-dasharray: none; stroke-linecap: butt; stroke-dashoffset: 0; stroke-linejoin: miter; stroke-miterlimit: 10; fill: rgb(77,77,77); fill-rule: nonzero; opacity: 1;" vector-effect="non-scaling-stroke"  transform=" translate(-36.68, -56.61)" d="M 37.444 58.614 L 35.925000000000004 58.614 C 35.24 58.614 34.684000000000005 58.059 34.684000000000005 57.373 L 34.684000000000005 55.854 C 34.684000000000005 55.169 35.239000000000004 54.613 35.925000000000004 54.613 L 37.444 54.613 C 38.129000000000005 54.613 38.685 55.168 38.685 55.854 L 38.685 57.373 C 38.685 58.059 38.13 58.614 37.444 58.614 z" stroke-linecap="round" />
</g>
		<g transform="matrix(2.81 0 0 2.81 -70.1 79.36)"  >
<path style="stroke: none; stroke-width: 1; stroke-dasharray: none; stroke-linecap: butt; stroke-dashoffset: 0; stroke-linejoin: miter; stroke-miterlimit: 10; fill: rgb(77,77,77); fill-rule: nonzero; opacity: 1;" vector-effect="non-scaling-stroke"  transform=" translate(-20.05, -73.24)" d="M 20.814 75.244 L 19.295 75.244 C 18.610000000000003 75.244 18.054000000000002 74.689 18.054000000000002 74.003 L 18.054000000000002 72.484 C 18.054000000000002 71.79899999999999 18.609 71.243 19.295 71.243 L 20.814 71.243 C 21.499 71.243 22.055 71.798 22.055 72.484 L 22.055 74.003 C 22.055 74.689 21.5 75.244 20.814 75.244 z" stroke-linecap="round" />
</g>
		<g transform="matrix(2.81 0 0 2.81 -23.37 79.36)"  >
<path style="stroke: none; stroke-width: 1; stroke-dasharray: none; stroke-linecap: butt; stroke-dashoffset: 0; stroke-linejoin: miter; stroke-miterlimit: 10; fill: rgb(77,77,77); fill-rule: nonzero; opacity: 1;" vector-effect="non-scaling-stroke"  transform=" translate(-36.68, -73.24)" d="M 37.444 75.244 L 35.925000000000004 75.244 C 35.24 75.244 34.684000000000005 74.689 34.684000000000005 74.003 L 34.684000000000005 72.484 C 34.684000000000005 71.79899999999999 35.239000000000004 71.243 35.925000000000004 71.243 L 37.444 71.243 C 38.129000000000005 71.243 38.685 71.798 38.685 72.484 L 38.685 74.003 C 38.685 74.689 38.13 75.244 37.444 75.244 z" stroke-linecap="round" />
</g>
		<g transform="matrix(2.81 0 0 2.81 61.17 69.08)"  >
<path style="stroke: none; stroke-width: 1; stroke-dasharray: none; stroke-linecap: butt; stroke-dashoffset: 0; stroke-linejoin: miter; stroke-miterlimit: 10; fill: rgb(77,77,77); fill-rule: nonzero; opacity: 1;" vector-effect="non-scaling-stroke"  transform=" translate(-66.77, -69.58)" d="M 66.77 90 C 55.512 90 46.352999999999994 80.841 46.352999999999994 69.583 C 46.352999999999994 58.324 55.51199999999999 49.165 66.77 49.165 C 78.02799999999999 49.165 87.187 58.324 87.187 69.583 C 87.187 80.841 78.027 90 66.77 90 z M 66.77 53.165 C 57.717 53.165 50.352999999999994 60.53 50.352999999999994 69.583 C 50.352999999999994 78.636 57.717 86 66.77 86 C 75.823 86 83.187 78.636 83.187 69.583 C 83.187 60.53 75.822 53.165 66.77 53.165 z" stroke-linecap="round" />
</g>
		<g transform="matrix(2.81 0 0 2.81 62.65 70.51)"  >
<path style="stroke: none; stroke-width: 1; stroke-dasharray: none; stroke-linecap: butt; stroke-dashoffset: 0; stroke-linejoin: miter; stroke-miterlimit: 10; fill: rgb(77,77,77); fill-rule: nonzero; opacity: 1;" vector-effect="non-scaling-stroke"  transform=" translate(-67.29, -70.09)" d="M 64.683 77.052 C 64.667 77.052 64.65100000000001 77.052 64.635 77.051 C 64.072 77.038 63.540000000000006 76.787 63.17100000000001 76.36200000000001 L 58.92700000000001 71.46600000000001 C 58.20400000000001 70.632 58.294000000000004 69.36800000000001 59.129000000000005 68.64500000000001 C 59.96300000000001 67.92300000000002 61.22800000000001 68.01 61.95 68.84700000000001 L 64.754 72.08200000000001 L 72.70400000000001 63.75600000000001 C 73.46600000000001 62.955000000000005 74.733 62.928000000000004 75.531 63.69100000000001 C 76.33000000000001 64.45400000000001 76.35900000000001 65.71900000000001 75.596 66.51800000000001 L 66.128 76.43400000000001 C 65.751 76.829 65.229 77.052 64.683 77.052 z" stroke-linecap="round" />
</g>
</g>
</g>
<g transform="matrix(NaN NaN NaN NaN 0 0)"  >
<g style=""   >
</g>
</g>
</svg>