<svg xmlns="http://www.w3.org/2000/svg" width="28" height="28" viewBox="0 0 28 28" fill="none">
  <g clip-path="url(#clip0_2_43558)">
    <path d="M27.125 6.125H0.875C0.642936 6.125 0.420376 6.21719 0.256282 6.38128C0.0921872 6.54538 0 6.76794 0 7L0 21C0 21.2321 0.0921872 21.4546 0.256282 21.6187C0.420376 21.7828 0.642936 21.875 0.875 21.875H27.125C27.3571 21.875 27.5796 21.7828 27.7437 21.6187C27.9078 21.4546 28 21.2321 28 21V7C28 6.76794 27.9078 6.54538 27.7437 6.38128C27.5796 6.21719 27.3571 6.125 27.125 6.125ZM21.9538 20.125H6.04625C5.86389 19.0519 5.35246 18.0619 4.58276 17.2922C3.81306 16.5225 2.82314 16.0111 1.75 15.8288V12.1712C2.82314 11.9889 3.81306 11.4775 4.58276 10.7078C5.35246 9.93806 5.86389 8.94814 6.04625 7.875H21.9538C22.1361 8.94814 22.6475 9.93806 23.4172 10.7078C24.1869 11.4775 25.1769 11.9889 26.25 12.1712V15.8288C25.1769 16.0111 24.1869 16.5225 23.4172 17.2922C22.6475 18.0619 22.1361 19.0519 21.9538 20.125ZM26.25 10.3775C25.6481 10.2204 25.099 9.90571 24.6591 9.46586C24.2193 9.026 23.9046 8.47687 23.7475 7.875H26.25V10.3775ZM4.2525 7.875C4.09539 8.47687 3.78071 9.026 3.34085 9.46586C2.901 9.90571 2.35187 10.2204 1.75 10.3775V7.875H4.2525ZM1.75 17.6225C2.35187 17.7796 2.901 18.0943 3.34085 18.5341C3.78071 18.974 4.09539 19.5231 4.2525 20.125H1.75V17.6225ZM23.7475 20.125C23.9046 19.5231 24.2193 18.974 24.6591 18.5341C25.099 18.0943 25.6481 17.7796 26.25 17.6225V20.125H23.7475Z" fill="#E33131"/>
    <path d="M6.57137 0.621383C6.47173 0.563779 6.3617 0.526398 6.24759 0.511384C6.13348 0.496369 6.01753 0.504015 5.90637 0.533883C5.6822 0.592118 5.49026 0.736861 5.37262 0.936383L3.62263 3.93763C3.50659 4.13953 3.47552 4.37925 3.53623 4.60406C3.59695 4.82887 3.74448 5.02035 3.94638 5.13638C4.14827 5.25242 4.38799 5.28349 4.6128 5.22278C4.83761 5.16206 5.02909 5.01453 5.14513 4.81263L6.45762 2.57263L10.8939 5.13638C11.0958 5.25242 11.3355 5.28349 11.5603 5.22278C11.7851 5.16206 11.9766 5.01453 12.0926 4.81263C12.2087 4.61074 12.2397 4.37102 12.179 4.14621C12.1183 3.9214 11.9708 3.72992 11.7689 3.61388L6.57137 0.621383Z" fill="#E33131"/>
    <path d="M21.4291 27.378C21.5616 27.4567 21.7125 27.4989 21.8666 27.5005C21.9419 27.5132 22.0188 27.5132 22.0941 27.5005C22.3183 27.4423 22.5102 27.2975 22.6279 27.098L24.3779 24.0968C24.4939 23.8949 24.525 23.6551 24.4643 23.4303C24.4035 23.2055 24.256 23.014 24.0541 22.898C23.8522 22.782 23.6125 22.7509 23.3877 22.8116C23.1629 22.8723 22.9714 23.0199 22.8554 23.2218L21.5604 25.4618L17.1241 22.898C16.9222 22.782 16.6825 22.7509 16.4577 22.8116C16.2329 22.8723 16.0414 23.0199 15.9254 23.2218C15.8093 23.4237 15.7783 23.6634 15.839 23.8882C15.8997 24.113 16.0472 24.3045 16.2491 24.4205L21.4291 27.378Z" fill="#E33131"/>
    <path d="M14 8.75C12.9616 8.75 11.9466 9.05791 11.0833 9.63479C10.2199 10.2117 9.54699 11.0316 9.14963 11.9909C8.75227 12.9502 8.64831 14.0058 8.85088 15.0242C9.05345 16.0426 9.55347 16.9781 10.2877 17.7123C11.0219 18.4465 11.9574 18.9466 12.9758 19.1491C13.9942 19.3517 15.0498 19.2477 16.0091 18.8504C16.9684 18.453 17.7883 17.7801 18.3652 16.9167C18.9421 16.0534 19.25 15.0384 19.25 14C19.25 12.6076 18.6969 11.2723 17.7123 10.2877C16.7277 9.30312 15.3924 8.75 14 8.75ZM14 17.5C13.3078 17.5 12.6311 17.2947 12.0555 16.9101C11.4799 16.5256 11.0313 15.9789 10.7664 15.3394C10.5015 14.6999 10.4322 13.9961 10.5673 13.3172C10.7023 12.6383 11.0356 12.0146 11.5251 11.5251C12.0146 11.0356 12.6383 10.7023 13.3172 10.5673C13.9961 10.4322 14.6999 10.5015 15.3394 10.7664C15.9789 11.0313 16.5256 11.4799 16.9101 12.0555C17.2947 12.6311 17.5 13.3078 17.5 14C17.5 14.9283 17.1313 15.8185 16.4749 16.4749C15.8185 17.1313 14.9283 17.5 14 17.5Z" fill="#E33131"/>
  </g>
  <defs>
    <clipPath id="clip0_2_43558">
      <rect width="28" height="28" fill="white"/>
    </clipPath>
  </defs>
</svg>