<svg xmlns="http://www.w3.org/2000/svg" width="20" height="20" viewBox="0 0 20 20" fill="none">
  <g clip-path="url(#clip0_4515_6232)">
    <path d="M3.33398 4.16667C3.33398 3.72464 3.50958 3.30072 3.82214 2.98816C4.1347 2.67559 4.55862 2.5 5.00065 2.5H15.0007C15.4427 2.5 15.8666 2.67559 16.1792 2.98816C16.4917 3.30072 16.6673 3.72464 16.6673 4.16667V15.8333C16.6673 16.2754 16.4917 16.6993 16.1792 17.0118C15.8666 17.3244 15.4427 17.5 15.0007 17.5H5.00065C4.55862 17.5 4.1347 17.3244 3.82214 17.0118C3.50958 16.6993 3.33398 16.2754 3.33398 15.8333V4.16667Z" stroke="#4D4D4D" stroke-linecap="round" stroke-linejoin="round"/>
    <path d="M6.66602 6.66732C6.66602 6.4463 6.75381 6.23434 6.91009 6.07806C7.06637 5.92178 7.27834 5.83398 7.49935 5.83398H12.4993C12.7204 5.83398 12.9323 5.92178 13.0886 6.07806C13.2449 6.23434 13.3327 6.4463 13.3327 6.66732V7.50065C13.3327 7.72166 13.2449 7.93363 13.0886 8.08991C12.9323 8.24619 12.7204 8.33398 12.4993 8.33398H7.49935C7.27834 8.33398 7.06637 8.24619 6.91009 8.08991C6.75381 7.93363 6.66602 7.72166 6.66602 7.50065V6.66732Z" stroke="#4D4D4D" stroke-linecap="round" stroke-linejoin="round"/>
    <path d="M6.66602 11.666V11.6743" stroke="#4D4D4D" stroke-linecap="round" stroke-linejoin="round"/>
    <path d="M10 11.666V11.6743" stroke="#4D4D4D" stroke-linecap="round" stroke-linejoin="round"/>
    <path d="M13.334 11.666V11.6743" stroke="#4D4D4D" stroke-linecap="round" stroke-linejoin="round"/>
    <path d="M6.66602 14.166V14.1743" stroke="#4D4D4D" stroke-linecap="round" stroke-linejoin="round"/>
    <path d="M10 14.166V14.1743" stroke="#4D4D4D" stroke-linecap="round" stroke-linejoin="round"/>
    <path d="M13.334 14.166V14.1743" stroke="#4D4D4D" stroke-linecap="round" stroke-linejoin="round"/>
  </g>
  <defs>
    <clipPath id="clip0_4515_6232">
      <rect width="20" height="20" fill="white"/>
    </clipPath>
  </defs>
</svg>