<svg xmlns="http://www.w3.org/2000/svg" width="15" height="15" viewBox="0 0 15 15" fill="none">
  <path d="M10.834 1.72529C11.8395 2.30586 12.6759 3.13898 13.2605 4.14216C13.8451 5.14534 14.1576 6.28381 14.1669 7.44485C14.1763 8.6059 13.8823 9.74926 13.314 10.7618C12.7457 11.7743 11.9228 12.6208 10.9268 13.2175C9.93081 13.8142 8.79623 14.1405 7.63538 14.164C6.47454 14.1875 5.32768 13.9074 4.30835 13.3515C3.28902 12.7955 2.43257 11.983 1.82376 10.9943C1.21496 10.0056 0.874924 8.8751 0.837318 7.71463L0.833984 7.49863L0.837318 7.28262C0.874653 6.13129 1.20968 5.00927 1.80974 4.02595C2.40981 3.04264 3.25442 2.23159 4.26125 1.67188C5.26807 1.11217 6.40275 0.822891 7.55466 0.832251C8.70656 0.841612 9.83639 1.14929 10.834 1.72529ZM9.97198 5.69396C9.85719 5.57917 9.70446 5.51022 9.54244 5.50003C9.38042 5.48985 9.22025 5.53912 9.09199 5.63863L9.02932 5.69396L6.83399 7.88863L5.97198 7.02729L5.90932 6.97196C5.78104 6.87253 5.6209 6.82331 5.45892 6.83353C5.29694 6.84375 5.14426 6.9127 5.02949 7.02747C4.91473 7.14223 4.84577 7.29492 4.83555 7.45689C4.82533 7.61887 4.87456 7.77902 4.97398 7.90729L5.02932 7.96996L6.36265 9.30329L6.42532 9.35862C6.54223 9.44934 6.68601 9.49857 6.83399 9.49857C6.98196 9.49857 7.12574 9.44934 7.24265 9.35862L7.30532 9.30329L9.97198 6.63663L10.0273 6.57396C10.1268 6.44569 10.1761 6.28552 10.1659 6.1235C10.1557 5.96149 10.0868 5.80875 9.97198 5.69396Z" fill="#0D9755"/>
</svg>