<svg xmlns="http://www.w3.org/2000/svg" width="14" height="14" viewBox="0 0 14 14" fill="none">
  <g clip-path="url(#clip0_369_52065)">
    <path d="M1.75 7C1.75 7.68944 1.8858 8.37213 2.14963 9.00909C2.41347 9.64605 2.80018 10.2248 3.28769 10.7123C3.7752 11.1998 4.35395 11.5865 4.99091 11.8504C5.62787 12.1142 6.31056 12.25 7 12.25C7.68944 12.25 8.37213 12.1142 9.00909 11.8504C9.64605 11.5865 10.2248 11.1998 10.7123 10.7123C11.1998 10.2248 11.5865 9.64605 11.8504 9.00909C12.1142 8.37213 12.25 7.68944 12.25 7C12.25 6.31056 12.1142 5.62787 11.8504 4.99091C11.5865 4.35395 11.1998 3.7752 10.7123 3.28769C10.2248 2.80018 9.64605 2.41347 9.00909 2.14963C8.37213 1.8858 7.68944 1.75 7 1.75C6.31056 1.75 5.62787 1.8858 4.99091 2.14963C4.35395 2.41347 3.7752 2.80018 3.28769 3.28769C2.80018 3.7752 2.41347 4.35395 2.14963 4.99091C1.8858 5.62787 1.75 6.31056 1.75 7Z" stroke="#4D4D4D" stroke-linecap="round" stroke-linejoin="round"/>
    <path d="M5.25 5.25H5.25583" stroke="#4D4D4D" stroke-linecap="round" stroke-linejoin="round"/>
    <path d="M8.75 5.25H8.75583" stroke="#4D4D4D" stroke-linecap="round" stroke-linejoin="round"/>
    <path d="M4.66602 7.58337C4.66602 8.20221 4.91185 8.79571 5.34943 9.23329C5.78702 9.67087 6.38051 9.91671 6.99935 9.91671C7.61819 9.91671 8.21168 9.67087 8.64927 9.23329C9.08685 8.79571 9.33268 8.20221 9.33268 7.58337H4.66602Z" stroke="#4D4D4D" stroke-linecap="round" stroke-linejoin="round"/>
  </g>
  <defs>
    <clipPath id="clip0_369_52065">
      <rect width="14" height="14" fill="white"/>
    </clipPath>
  </defs>
</svg>