<svg xmlns="http://www.w3.org/2000/svg" width="24" height="25" viewBox="0 0 24 25" fill="none">
    <g clip-path="url(#clip0_369_50801)">
      <path d="M12.0104 2.51099C12.7882 2.51103 13.5393 2.79436 14.1234 3.30799L14.2774 3.45299L14.9754 4.15099C15.167 4.3413 15.4171 4.46144 15.6854 4.49199L15.8204 4.49999H16.8204C17.6376 4.49994 18.4239 4.81256 19.018 5.37373C19.6121 5.9349 19.9689 6.70209 20.0154 7.51799L20.0204 7.69999V8.69999C20.0204 8.96999 20.1124 9.23299 20.2784 9.44299L20.3684 9.54299L21.0654 10.241C21.6431 10.8154 21.98 11.5886 22.0073 12.4029C22.0346 13.2171 21.7503 14.0111 21.2124 14.623L21.0674 14.777L20.3694 15.475C20.1791 15.6665 20.059 15.9167 20.0284 16.185L20.0204 16.32V17.32C20.0205 18.1372 19.7078 18.9235 19.1467 19.5176C18.5855 20.1116 17.8183 20.4685 17.0024 20.515L16.8204 20.52H15.8204C15.5508 20.5201 15.2891 20.611 15.0774 20.778L14.9774 20.868L14.2794 21.565C13.705 22.1427 12.9318 22.4796 12.1175 22.5069C11.3033 22.5342 10.5093 22.2499 9.89741 21.712L9.74341 21.567L9.04541 20.869C8.85385 20.6787 8.6037 20.5585 8.33541 20.528L8.20041 20.52H7.20041C6.38319 20.52 5.59693 20.2074 5.00284 19.6462C4.40876 19.0851 4.05189 18.3179 4.00541 17.502L4.00041 17.32V16.32C4.00032 16.0504 3.90944 15.7886 3.74241 15.577L3.65241 15.477L2.95541 14.779C2.37769 14.2045 2.04083 13.4314 2.01352 12.6171C1.9862 11.8029 2.27049 11.0089 2.80841 10.397L2.95341 10.243L3.65141 9.54499C3.84172 9.35343 3.96187 9.10328 3.99241 8.83499L4.00041 8.69999V7.69999L4.00541 7.51799C4.05006 6.73343 4.38184 5.99274 4.9375 5.43707C5.49316 4.88141 6.23386 4.54964 7.01841 4.50499L7.20041 4.49999H8.20041C8.47003 4.4999 8.73176 4.40901 8.94341 4.24199L9.04341 4.15199L9.74141 3.45499C10.0387 3.15588 10.3923 2.91849 10.7817 2.75649C11.1711 2.59448 11.5887 2.51105 12.0104 2.51099ZM15.7074 9.79299C15.5199 9.60552 15.2656 9.5002 15.0004 9.5002C14.7352 9.5002 14.4809 9.60552 14.2934 9.79299L11.0004 13.085L9.70741 11.793L9.61341 11.71C9.41242 11.5546 9.15981 11.4815 8.90689 11.5056C8.65396 11.5297 8.41969 11.6491 8.25166 11.8397C8.08363 12.0303 7.99443 12.2777 8.00218 12.5316C8.00994 12.7856 8.11406 13.027 8.29341 13.207L10.2934 15.207L10.3874 15.29C10.5798 15.4392 10.8201 15.5132 11.0631 15.4979C11.3061 15.4826 11.5352 15.3792 11.7074 15.207L15.7074 11.207L15.7904 11.113C15.9397 10.9206 16.0136 10.6803 15.9983 10.4373C15.983 10.1943 15.8796 9.96518 15.7074 9.79299Z" fill="#0D9755"/>
    </g>
    <defs>
      <clipPath id="clip0_369_50801">
        <rect width="24" height="24" fill="white" transform="translate(0 0.5)"/>
      </clipPath>
    </defs>
  </svg>