<?xml version="1.0" encoding="utf-8" ?>
<svg baseProfile="tiny" height="100%" version="1.2" width="100%" xmlns="http://www.w3.org/2000/svg" xmlns:ev="http://www.w3.org/2001/xml-events" xmlns:xlink="http://www.w3.org/1999/xlink"><defs /><path d="M 49,81 48,82 47,82 47,83 46,84 46,85 45,86 45,493 46,494 46,495 47,496 47,497 281,497 281,496 290,487 290,486 300,476 300,475 310,465 310,464 319,455 319,454 329,444 329,443 339,433 339,432 348,423 348,422 358,412 358,411 367,402 367,401 377,391 377,390 386,381 386,379 387,378 387,377 386,376 386,374 387,373 386,372 386,371 387,370 386,369 386,368 387,367 387,366 386,365 386,362 387,361 387,360 386,359 386,356 387,355 387,354 386,353 386,350 387,349 387,348 386,347 386,344 387,343 387,342 386,341 386,338 387,337 387,336 386,335 386,332 387,331 387,330 386,329 386,326 387,325 387,324 386,323 386,320 387,319 387,318 386,317 386,314 387,313 387,312 386,311 386,308 387,307 387,306 386,305 386,302 387,301 387,300 386,299 386,297 387,296 387,295 386,294 386,291 387,290 387,289 386,288 386,285 387,284 387,283 386,282 386,279 387,278 387,277 386,276 386,273 387,272 387,271 386,270 386,268 387,267 387,266 386,265 386,261 387,260 387,259 386,258 386,255 387,254 387,253 386,252 386,249 387,248 387,247 386,246 387,245 387,244 386,243 386,242 387,241 387,240 386,239 387,238 387,237 386,236 386,235 387,234 387,233 386,232 386,230 387,229 387,228 386,227 387,226 387,225 386,224 386,223 387,222 387,221 386,220 387,219 387,218 386,217 386,216 387,215 387,214 386,213 387,212 387,211 386,210 386,209 387,208 387,207 386,206 387,205 387,204 386,203 386,202 387,201 387,200 386,199 387,198 387,197 386,196 386,195 387,194 387,193 386,192 387,191 387,190 386,189 386,188 387,187 387,186 386,185 387,184 387,183 386,182 386,181 387,180 387,179 386,178 386,177 387,176 387,175 386,174 386,173 387,172 387,171 386,170 386,169 387,168 387,167 386,166 387,165 387,164 386,163 386,160 385,159 384,159 359,134 356,134 318,172 310,172 309,171 309,170 307,168 307,163 312,158 312,157 346,123 346,120 314,88 314,84 315,83 313,81" fill="none" stroke="black" stroke-width="2" /><path d="M 404,22 404,23 405,24 404,25 404,26 403,27 403,28 404,29 403,30 403,31 402,32 402,36 401,37 401,41 394,48 393,48 391,50 390,50 388,52 387,52 385,54 384,54 382,56 381,56 379,58 378,58 376,60 375,60 374,61 373,61 371,63 370,63 368,65 367,65 365,67 364,67 362,69 361,69 359,71 358,71 356,73 355,73 353,75 352,75 350,77 349,77 348,78 347,78 345,80 344,80 343,81 342,81 341,82 340,82 338,84 337,84 335,86 334,86 334,88 361,115 362,115 365,118 365,119 392,146 394,146 395,145 395,144 396,143 396,142 398,140 398,139 400,137 400,136 402,134 402,133 404,131 404,130 406,128 406,127 407,126 407,125 409,123 409,122 411,120 411,119 413,117 413,116 415,114 415,113 416,112 416,111 418,109 418,108 420,106 420,105 422,103 422,102 424,100 424,99 426,97 426,96 427,95 427,94 429,92 429,91 431,89 431,88 433,86 433,85 439,79 440,79 441,78 445,78 446,77 451,77 452,76 456,76 452,76 451,77 446,77 445,78 441,78 440,79 439,79 438,80 437,80 434,83 434,84 432,86 432,87 430,89 430,90 428,92 428,93 427,94 427,95 425,97 425,98 423,100 423,101 421,103 421,104 419,106 419,107 417,109 417,110 416,111 416,112 414,114 414,115 412,117 412,118 410,120 410,121 408,123 408,124 406,126 406,127 405,128 405,129 403,131 403,132 401,134 401,135 399,137 399,138 397,140 397,141 395,143 395,144 393,146 364,117 364,116 363,116 334,87 336,85 337,85 339,83 340,83 342,81 344,81 346,79 347,79 349,77 350,77 351,76 352,76 354,74 355,74 357,72 358,72 360,70 361,70 363,68 364,68 366,66 367,66 369,64 370,64 372,62 373,62 375,60 376,60 377,59 378,59 380,57 381,57 383,55 384,55 386,53 387,53 389,51 390,51 392,49 393,49 395,47 396,47 400,43 400,42 401,41 401,37 402,36 402,32 403,31 403,30 404,29 403,28 403,27 404,26 404,25 406,23 408,25 408,26 456,74 457,74 407,24 407,23 406,22" fill="none" stroke="black" stroke-width="2" /><path d="M 405,0 405,1 480,76 480,84 478,86 476,86 475,87 473,87 472,88 467,88 466,89 462,89 461,90 457,90 456,91 452,91 451,92 447,92 445,94 445,95 443,97 443,98 441,100 441,101 439,103 439,104 438,105 438,106 436,108 436,109 434,111 434,112 432,114 432,115 431,116 431,117 429,119 429,120 427,122 427,123 425,125 425,126 423,128 423,129 422,130 422,131 420,133 420,134 418,136 418,137 416,139 416,140 415,141 415,142 413,144 413,145 411,147 411,148 409,150 409,151 408,152 408,153 406,155 406,156 404,158 404,159 402,161 402,162 401,163 401,387 399,389 399,390 389,400 389,401 379,411 379,412 369,422 369,423 359,433 359,434 349,444 349,445 339,455 339,456 329,466 329,467 319,477 319,478 309,488 309,489 299,499 299,500 289,510 289,511 299,501 299,500 309,490 309,489 319,479 319,478 329,468 329,467 339,457 339,456 349,446 349,445 359,435 359,434 369,424 369,423 379,413 379,412 389,402 389,401 399,391 399,390 401,388 401,163 403,161 403,160 405,158 405,157 407,155 407,154 408,153 408,152 410,150 410,149 412,147 412,146 414,144 414,143 415,142 415,141 417,139 417,138 419,136 419,135 421,133 421,132 422,131 422,130 424,128 424,127 426,125 426,124 428,122 428,121 430,119 430,118 431,117 431,116 433,114 433,113 435,111 435,110 437,108 437,107 438,106 438,105 440,103 440,102 442,100 442,99 444,97 444,96 445,95 445,94 447,92 451,92 452,91 456,91 457,90 461,90 462,89 466,89 467,88 472,88 473,87 475,87 476,86 479,86 480,85 480,75" fill="none" stroke="black" stroke-width="2" /><path d="M 395,0 393,2 393,3 392,4 392,6 391,7 391,10 390,11 390,12 391,13 390,14 390,17 389,18 389,22 388,23 388,27 387,28 387,32 386,33 386,34 385,35 384,35 383,36 382,36 380,38 379,38 377,40 376,40 374,42 373,42 371,44 370,44 369,45 368,45 366,47 365,47 363,49 362,49 360,51 359,51 358,52 357,52 355,54 354,54 352,56 351,56 349,58 348,58 346,60 345,60 344,61 343,61 341,63 340,63 338,65 337,65 336,66 47,66 46,67 41,67 40,68 39,68 38,69 37,69 33,73 33,74 32,75 32,76 31,77 31,79 30,80 30,81 31,82 31,83 30,84 31,85 31,86 30,87 30,88 31,89 31,90 30,91 31,92 31,93 30,94 30,95 31,96 31,97 30,98 31,99 30,100 30,101 31,102 31,104 30,105 31,106 30,107 30,108 31,109 31,111 30,112 31,113 30,114 30,115 31,116 31,118 30,119 31,120 30,121 30,122 31,123 30,124 31,125 31,127 30,128 30,129 31,130 30,131 31,132 31,133 30,134 30,135 31,136 31,137 30,138 31,139 31,140 30,141 30,142 31,143 31,144 30,145 31,146 31,147 30,148 30,149 31,150 31,151 30,152 31,153 31,154 30,155 30,156 31,157 31,158 30,159 31,160 31,161 30,162 30,163 31,164 31,165 30,166 31,167 31,168 30,169 30,170 31,171 31,172 30,173 30,174 31,175 31,176 30,177 30,178 31,179 31,180 30,181 30,182 31,183 31,184 30,185 31,186 31,187 30,188 30,189 31,190 31,191 30,192 31,193 31,194 30,195 30,196 31,197 31,198 30,199 31,200 31,201 30,202 30,203 31,204 31,205 30,206 31,207 31,208 30,209 30,210 31,211 31,212 30,213 31,214 31,215 30,216 30,217 31,218 31,219 30,220 31,221 31,222 30,223 30,224 31,225 31,226 30,227 31,228 31,229 30,230 30,232 31,233 31,234 30,235 30,236 31,237 31,238 30,239 31,240 31,241 30,242 30,243 31,244 31,245 30,246 31,247 31,248 30,249 30,252 31,253 31,254 30,255 30,258 31,259 31,260 30,261 30,265 31,266 31,267 30,268 30,270 31,271 31,272 30,273 30,276 31,277 31,278 30,279 30,282 31,283 31,284 30,285 30,288 31,289 31,290 30,291 30,294 31,295 31,296 30,297 30,299 31,300 31,301 30,302 30,305 31,306 31,307 30,308 30,311 31,312 31,313 30,314 30,317 31,318 31,319 30,320 30,323 31,324 31,325 30,326 30,329 31,330 31,331 30,332 30,335 31,336 31,337 30,338 30,341 31,342 31,343 30,344 30,347 31,348 31,349 30,350 30,353 31,354 31,355 30,356 30,359 31,360 31,361 30,362 30,365 31,366 31,367 30,368 30,369 31,370 30,371 30,372 31,373 30,374 30,376 31,377 31,378 30,379 30,383 31,384 31,385 30,386 30,387 31,388 31,389 30,390 30,394 31,395 31,396 30,397 30,400 31,401 31,402 30,403 30,404 31,405 31,406 30,407 30,411 31,412 31,413 30,414 31,415 31,416 30,417 30,421 31,422 31,423 30,424 30,428 31,429 31,430 30,431 30,432 31,433 31,434 30,435 30,439 31,440 31,441 30,442 31,443 31,444 30,445 30,449 31,450 31,451 30,452 30,456 31,457 31,458 30,459 30,460 31,461 31,462 30,463 30,467 31,468 31,469 30,470 30,474 31,475 31,476 30,477 30,478 31,479 31,480 30,481 30,484 31,485 31,486 30,487 30,489 31,490 31,491 30,492 30,495 31,496 31,501 32,502 32,503 33,504 33,505 37,509 38,509 39,510 40,510 41,511 40,510 39,510 32,503 32,502 31,501 31,496 30,495 30,492 31,491 31,490 30,489 30,487 31,486 31,485 30,484 30,481 31,480 31,479 30,478 30,477 31,476 31,475 30,474 30,470 31,469 31,468 30,467 30,463 31,462 31,461 30,460 30,459 31,458 31,457 30,456 30,452 31,451 31,450 30,449 30,445 31,444 31,443 30,442 31,441 31,440 30,439 30,435 31,434 31,433 30,432 30,431 31,430 31,429 30,428 30,424 31,423 31,422 30,421 30,417 31,416 31,415 30,414 31,413 31,412 30,411 30,407 31,406 31,405 30,404 30,403 31,402 31,401 30,400 30,397 31,396 31,395 30,394 30,390 31,389 31,388 30,387 30,386 31,385 31,384 30,383 30,379 31,378 31,377 30,376 30,374 31,373 30,372 30,371 31,370 30,369 30,368 31,367 31,366 30,365 30,362 31,361 31,360 30,359 30,356 31,355 31,354 30,353 30,350 31,349 31,348 30,347 30,344 31,343 31,342 30,341 30,338 31,337 31,336 30,335 30,332 31,331 31,330 30,329 30,326 31,325 31,324 30,323 30,320 31,319 31,318 30,317 30,314 31,313 31,312 30,311 30,308 31,307 31,306 30,305 30,302 31,301 31,300 30,299 30,297 31,296 31,295 30,294 30,291 31,290 31,289 30,288 30,285 31,284 31,283 30,282 30,279 31,278 31,277 30,276 30,273 31,272 31,271 30,270 30,268 31,267 31,266 30,265 30,261 31,260 31,259 30,258 30,255 31,254 31,253 30,252 30,249 31,248 31,247 30,246 31,245 31,244 30,243 30,242 31,241 31,240 30,239 31,238 31,237 30,236 30,235 31,234 31,233 30,232 30,230 31,229 31,228 30,227 31,226 31,225 30,224 30,223 31,222 31,221 30,220 31,219 31,218 30,217 30,216 31,215 31,214 30,213 31,212 31,211 30,210 30,209 31,208 31,207 30,206 31,205 31,204 30,203 30,202 31,201 31,200 30,199 31,198 31,197 30,196 30,195 31,194 31,193 30,192 31,191 31,190 30,189 30,188 31,187 31,186 30,185 31,184 31,183 30,182 30,181 31,180 31,179 30,178 30,177 31,176 31,175 30,174 30,173 31,172 31,171 30,170 30,169 31,168 31,167 30,166 31,165 31,164 30,163 30,162 31,161 31,160 30,159 31,158 31,157 30,156 30,155 31,154 31,153 30,152 31,151 31,150 30,149 30,148 31,147 31,146 30,145 31,144 31,143 30,142 30,141 31,140 31,139 30,138 31,137 31,136 30,135 30,134 31,133 31,132 30,131 31,130 30,129 30,128 31,127 31,125 30,124 31,123 30,122 30,121 31,120 30,119 31,118 31,116 30,115 30,114 31,113 30,112 31,111 31,109 30,108 30,107 31,106 30,105 31,104 31,102 30,101 30,100 31,99 30,98 31,97 31,96 30,95 30,94 31,93 31,92 30,91 31,90 31,89 30,88 30,87 31,86 31,85 30,84 31,83 31,82 30,81 30,80 31,79 31,77 32,76 32,75 39,68 40,68 41,67 46,67 47,66 337,66 339,64 340,64 342,62 343,62 345,60 346,60 347,59 348,59 350,57 351,57 353,55 354,55 356,53 357,53 359,51 360,51 361,50 362,50 364,48 365,48 367,46 368,46 370,44 371,44 372,43 373,43 375,41 376,41 378,39 379,39 381,37 382,37 384,35 385,35 386,34 386,33 387,32 387,28 388,27 388,23 389,22 389,18 390,17 390,14 391,13 390,12 390,11 391,10 391,7 392,6 392,4 395,1" fill="none" stroke="black" stroke-width="2" /></svg>